<svg viewBox="0 0 18 26" fill="none" xmlns="http://www.w3.org/2000/svg"><path d="M16.9 4.273a3.7 3.7 0 0 0-1.056-2.594A3.581 3.581 0 0 0 13.286.6H4.714c-.96 0-1.88.389-2.558 1.079A3.699 3.699 0 0 0 1.1 4.273v17.454a3.7 3.7 0 0 0 1.056 2.594A3.581 3.581 0 0 0 4.714 25.4h8.572c.96 0 1.881-.389 2.558-1.079a3.699 3.699 0 0 0 1.056-2.594V4.273Zm-6.829 17.054H7.93a.682.682 0 0 1-.672-.69c0-.389.308-.692.672-.692h2.142c.364 0 .672.303.672.691a.682.682 0 0 1-.672.691Z" fill="#FFCC01" stroke="#843225" stroke-width=".8"/></svg>