<svg viewBox="0 0 16 22" fill="none" xmlns="http://www.w3.org/2000/svg"><path d="M14.65 3.727a3.15 3.15 0 0 0-.9-2.208A3.051 3.051 0 0 0 11.572.6H4.43c-.82 0-1.603.331-2.18.919a3.15 3.15 0 0 0-.899 2.208v14.546c0 .827.322 1.622.9 2.208a3.05 3.05 0 0 0 2.179.919h7.142c.82 0 1.603-.331 2.18-.919a3.149 3.149 0 0 0 .899-2.208V3.727ZM8.893 17.873H7.107a.501.501 0 0 1-.493-.51c0-.287.228-.508.493-.508h1.786a.5.5 0 0 1 .493.509.502.502 0 0 1-.493.509Z" fill="#fff" stroke="#843225" stroke-width=".8"/></svg>