<svg id="Layer_1" data-name="Layer 1" xmlns="http://www.w3.org/2000/svg" viewBox="0 0 16 16"><defs><style>.cls-1,.cls-2{fill:#843225;stroke-width:0}.cls-2{fill:#fff}</style></defs><path class="cls-1" d="M1.475 7.01a.857.857 0 0 1-.856-.856V4.786c0-.723.589-1.312 1.312-1.312h.412A2.187 2.187 0 0 1 3.599.956C3.888.827 4.19.763 4.5.763a2.2 2.2 0 0 1 1.475.575l1.023.93A1.762 1.762 0 0 1 9 2.267l1.022-.928a2.19 2.19 0 0 1 2.376-.383 2.188 2.188 0 0 1 1.256 2.518h.415c.723 0 1.312.589 1.312 1.312v1.368a.857.857 0 0 1-.856.857H1.475Zm9.987-3.536c.278 0 .52-.203.536-.453a.486.486 0 0 0-.37-.528.383.383 0 0 0-.115-.016.556.556 0 0 0-.364.149l-.933.848h1.246Zm-6.961-1a.508.508 0 0 0-.219.051.498.498 0 0 0 .21.948h1.29l-.956-.867a.484.484 0 0 0-.325-.131Z"/><path class="cls-1" d="M11.497 1.163c.248 0 .499.052.74.159A1.795 1.795 0 0 1 13.3 3.17a1.62 1.62 0 0 1-.247.703h1.016c.503 0 .91.409.91.912v1.368a.456.456 0 0 1-.455.456H1.475a.456.456 0 0 1-.455-.456V4.786c0-.503.407-.912.91-.912h1.014a1.62 1.62 0 0 1-.248-.703 1.795 1.795 0 0 1 1.064-1.85 1.788 1.788 0 0 1 1.946.313l1.285 1.167A1.361 1.361 0 0 1 9.008 2.8l1.283-1.165c.342-.31.77-.473 1.206-.473M4.493 3.875h2.141V3.71l-1.538-1.4a.878.878 0 0 0-.98-.149.9.9 0 0 0 .378 1.712m4.873 0h2.096c.475 0 .902-.35.936-.824a.887.887 0 0 0-.656-.94.802.802 0 0 0-.23-.034.952.952 0 0 0-.63.254L9.364 3.706v.168M11.498.363a2.59 2.59 0 0 0-1.744.68l-.805.73a2.163 2.163 0 0 0-1.898.002l-.806-.732A2.594 2.594 0 0 0 3.436.59a2.577 2.577 0 0 0-1.548 2.484A1.713 1.713 0 0 0 .22 4.786v1.368c0 .693.563 1.256 1.255 1.256h13.05c.692 0 1.255-.563 1.255-1.256V4.786c0-.93-.746-1.69-1.67-1.711A2.577 2.577 0 0 0 12.56.59a2.607 2.607 0 0 0-1.064-.227ZM4.493 3.074a.096.096 0 0 1-.076-.037.105.105 0 0 1-.016-.095.098.098 0 0 1 .05-.054.125.125 0 0 1 .05-.013c.007 0 .025 0 .057.028l.188.171h-.253Zm6.758 0 .168-.152a.164.164 0 0 1 .093-.046c.08.024.092.055.088.117-.002.032-.065.081-.138.081h-.21Z"/><path class="cls-1" d="M2.84 15.523c-.722 0-1.31-.588-1.31-1.312V7.122h5.96v8.401H2.84Z"/><path class="cls-1" d="M7.09 7.522v7.6H2.84a.911.911 0 0 1-.91-.911V7.522h5.16m.8-.8H1.13v7.489c0 .944.768 1.712 1.71 1.712h5.05v-9.2Zm.62 8.801v-8.4h5.96v7.088c0 .724-.588 1.312-1.31 1.312H8.51Z"/><path class="cls-1" d="M14.07 7.522v6.689a.911.911 0 0 1-.91.912H8.91v-7.6h5.16m.8-.8H8.11v9.2h5.05c.942 0 1.71-.768 1.71-1.712V6.722Z"/><path class="cls-2" d="M1.475 6.726a.857.857 0 0 1-.856-.857V4.501c0-.724.589-1.313 1.312-1.313h.412A2.187 2.187 0 0 1 3.599.67a2.197 2.197 0 0 1 2.376.382l1.023.93a1.76 1.76 0 0 1 2.002 0l1.022-.928c.41-.372.934-.577 1.475-.577.31 0 .613.065.901.194a2.188 2.188 0 0 1 1.256 2.518h.415c.723 0 1.312.588 1.312 1.312v1.368a.857.857 0 0 1-.856.857H1.475Zm9.987-3.538c.278 0 .52-.202.536-.452a.486.486 0 0 0-.37-.528.39.39 0 0 0-.116-.018.552.552 0 0 0-.363.15l-.933.848h1.246ZM4.5 2.19a.508.508 0 0 0-.219.051.494.494 0 0 0-.178.759c.094.12.237.19.39.19H5.78l-.955-.868A.484.484 0 0 0 4.5 2.19Z"/><path class="cls-1" d="M11.497.877c.248 0 .499.052.74.16A1.795 1.795 0 0 1 13.3 2.885a1.62 1.62 0 0 1-.247.703h1.016a.91.91 0 0 1 .91.912v1.368a.456.456 0 0 1-.455.456H1.475a.456.456 0 0 1-.455-.456V4.501a.91.91 0 0 1 .91-.912h1.014a1.62 1.62 0 0 1-.248-.703 1.795 1.795 0 0 1 1.064-1.85 1.788 1.788 0 0 1 1.946.313l1.285 1.167a1.361 1.361 0 0 1 2.017-.001L10.29 1.35c.342-.311.77-.473 1.206-.473M4.493 3.59h2.141v-.166L5.096 2.025a.878.878 0 0 0-.98-.148.9.9 0 0 0 .378 1.712m4.873 0h2.096c.475 0 .902-.35.936-.825a.887.887 0 0 0-.656-.94.802.802 0 0 0-.23-.033.952.952 0 0 0-.63.253L9.364 3.421v.168M11.498.077a2.59 2.59 0 0 0-1.744.68l-.805.731a2.163 2.163 0 0 0-1.898.001L6.244.757A2.594 2.594 0 0 0 3.436.305 2.577 2.577 0 0 0 1.888 2.79 1.713 1.713 0 0 0 .22 4.501v1.368c0 .693.563 1.256 1.255 1.256h13.05c.692 0 1.255-.563 1.255-1.256V4.501c0-.931-.746-1.69-1.67-1.712A2.577 2.577 0 0 0 12.56.305a2.607 2.607 0 0 0-1.064-.228ZM4.493 2.79a.096.096 0 0 1-.076-.038.105.105 0 0 1-.016-.094.098.098 0 0 1 .05-.054.125.125 0 0 1 .05-.014c.007 0 .025 0 .057.03l.188.17h-.253Zm6.758 0 .168-.152a.164.164 0 0 1 .093-.046c.08.023.092.055.088.116-.002.033-.065.082-.138.082h-.21Z"/><path class="cls-2" d="M2.84 15.238c-.722 0-1.31-.589-1.31-1.312v-7.09h5.96v8.402H2.84Z"/><path class="cls-1" d="M7.09 7.237v7.6H2.84a.911.911 0 0 1-.91-.912V7.237h5.16m.8-.8H1.13v7.488c0 .944.768 1.712 1.71 1.712h5.05v-9.2Z"/><path class="cls-2" d="M8.51 15.238V6.837h5.96v7.089c0 .723-.588 1.312-1.31 1.312H8.51Z"/><path class="cls-1" d="M14.07 7.237v6.688a.911.911 0 0 1-.91.912H8.91v-7.6h5.16m.8-.8H8.11v9.2h5.05c.942 0 1.71-.768 1.71-1.712V6.437Z"/></svg>