<svg id="Layer_1" data-name="Layer 1" xmlns="http://www.w3.org/2000/svg" viewBox="0 0 19.66 19.66"><defs><style>.cls-1{fill:#843225;stroke-width:0}</style></defs><path class="cls-1" d="M6.72 19.231c-.635 0-1.152-.505-1.152-1.124 0-.62.517-1.125 1.152-1.125h1.092l.437-2.424c-1.108-.475-1.97-1.473-2.622-3.036C2.865 11.17.737 8.844.737 6.127V5.062c0-1.078.904-1.956 2.015-1.956h.58a13.92 13.92 0 0 1-.01-.498 1.58 1.58 0 0 1 .41-1.077c.287-.308.676-.48 1.072-.48h10.052c.397 0 .773.167 1.059.473.27.29.424.684.424 1.084 0 .168-.005.334-.011.498h.58c1.11 0 2.016.878 2.016 1.956 0 2.895-1.951 5.416-4.768 6.24-.746 1.702-1.687 2.82-2.745 3.265l.436 2.415h1.092c.635 0 1.152.505 1.152 1.125s-.517 1.124-1.152 1.124H6.72ZM3.04 6.127c0 .964.464 1.87 1.217 2.47a17.25 17.25 0 0 1-.74-3.243H3.04v.773Zm6.197-.764a.4.4 0 0 1-.299.212l-.931.13a.19.19 0 0 0-.153.125c-.015.044.004.107.052.154l.671.624a.4.4 0 0 1 .121.362l-.158.898c-.015.085.04.14.074.164.024.016.06.027.1.027a.241.241 0 0 0 .104-.025l.832-.42a.402.402 0 0 1 .36 0l.834.42a.485.485 0 0 0 .116.016.203.203 0 0 0 .116-.034c-.003 0 .059-.057.043-.148l-.157-.89a.4.4 0 0 1 .119-.361l.676-.637c.045-.044.063-.106.045-.162a.18.18 0 0 0-.146-.113l-.877-.122a.4.4 0 0 1-.318-.158 1.292 1.292 0 0 1-.066-.112l-.394-.768c-.031-.063-.095-.096-.171-.096a.19.19 0 0 0-.17.095h-.002l-.42.819Zm6.905-.009c-.112.83-.27 1.622-.473 2.368a4.12 4.12 0 0 0 .944-2.368h-.471Z"/><path class="cls-1" d="M14.856 1.45c.293 0 .564.13.767.348.203.217.315.514.315.81 0 .305-.015.601-.03.898h1c.886 0 1.615.695 1.615 1.556v.044c0 2.801-1.976 5.16-4.658 5.863-.81 1.925-1.834 3.037-2.908 3.333l.556 3.08h1.426a.74.74 0 0 1 .752.725c0 .4-.337.723-.752.723H6.72a.738.738 0 0 1-.752-.723c0-.4.337-.724.752-.724h1.427l.555-3.081c-1.074-.348-2.04-1.224-2.794-3.152-2.675-.225-4.771-2.389-4.771-5.024V5.062c0-.861.728-1.556 1.615-1.556h1c-.016-.297-.03-.593-.03-.897a1.191 1.191 0 0 1 .307-.811c.203-.217.481-.348.774-.348h10.053M9.304 4.36l.002-.004-.002.004-.421.818-.932.13a.592.592 0 0 0-.473.384.56.56 0 0 0 .15.58l.676.629-.157.897a.563.563 0 0 0 .568.661c.095 0 .19-.022.28-.067l.835-.42.834.42c.088.05.18.072.271.072.12 0 .24-.039.352-.108a.572.572 0 0 0 .226-.558l-.158-.89.676-.637a.56.56 0 0 0 .15-.579.582.582 0 0 0-.473-.384l-.932-.13-.42-.818a.578.578 0 0 0-.526-.311.59.59 0 0 0-.526.31m5.537 4.62c1.308-.833 2.18-2.26 2.18-3.873v-.044a.114.114 0 0 0-.113-.108h-1.12c-.173 1.484-.496 2.844-.947 4.024m-9.82.507c-.548-1.288-.954-2.823-1.15-4.531h-1.12c-.06 0-.112.05-.112.108v1.064c0 1.528.992 2.838 2.382 3.359m5.755-4.307.003.005-.003-.005M14.856.65H4.803c-.506 0-1.001.22-1.358.602a2 2 0 0 0-.523 1.454h-.17C1.42 2.706.337 3.763.337 5.062v1.064c0 2.843 2.163 5.285 5.01 5.76.626 1.413 1.435 2.37 2.455 2.903l-.324 1.794H6.72c-.856 0-1.552.683-1.552 1.524s.696 1.523 1.552 1.523h6.219c.856 0 1.552-.683 1.552-1.523s-.696-1.524-1.552-1.524h-.758l-.322-1.788c.997-.534 1.88-1.61 2.588-3.163 2.89-.926 4.876-3.557 4.876-6.526 0-1.343-1.084-2.4-2.415-2.4h-.17v-.097c0-.502-.193-.996-.53-1.357A1.838 1.838 0 0 0 14.855.65Zm-6.31 5.383.448-.063a.8.8 0 0 0 .6-.426l.236-.457.084.164.145.282a.8.8 0 0 0 .682.448l.376.053-.31.292a.8.8 0 0 0-.24.722l.078.44-.456-.23a.8.8 0 0 0-.719 0l-.456.23.078-.449a.8.8 0 0 0-.242-.724l-.304-.282Z"/><path d="M6.72 18.643c-.635 0-1.152-.505-1.152-1.125 0-.619.517-1.124 1.152-1.124h1.092l.437-2.424c-1.108-.475-1.97-1.473-2.622-3.036C2.865 10.582.737 8.257.737 5.54V4.474c0-1.079.904-1.957 2.015-1.957h.58a13.55 13.55 0 0 1-.01-.497 1.58 1.58 0 0 1 .41-1.077A1.475 1.475 0 0 1 4.803.462h10.052c.397 0 .773.169 1.059.474.27.29.424.684.424 1.084 0 .168-.005.333-.011.497h.58c1.11 0 2.016.878 2.016 1.957 0 2.895-1.951 5.416-4.768 6.24-.746 1.702-1.687 2.819-2.745 3.264l.436 2.416h1.092c.635 0 1.152.505 1.152 1.124 0 .62-.517 1.125-1.152 1.125H6.72ZM3.04 5.54c0 .966.464 1.87 1.217 2.47a17.25 17.25 0 0 1-.74-3.243H3.04v.773Zm6.197-.764a.4.4 0 0 1-.299.212l-.931.13a.19.19 0 0 0-.153.125c-.014.044.004.108.052.154l.671.624a.4.4 0 0 1 .121.362l-.158.898c-.015.085.04.139.073.162.026.018.063.03.102.03.035 0 .07-.01.103-.026l.832-.419a.402.402 0 0 1 .36 0l.834.42c.048.01.085.016.115.016a.203.203 0 0 0 .116-.035s.06-.057.044-.148l-.157-.89a.4.4 0 0 1 .119-.361l.676-.637a.16.16 0 0 0 .045-.16.179.179 0 0 0-.146-.115l-.884-.123a.399.399 0 0 1-.35-.216l-.42-.82c-.032-.064-.096-.097-.172-.097a.19.19 0 0 0-.17.095h-.002l-.42.82Zm6.905-.009c-.112.83-.27 1.622-.473 2.368a4.12 4.12 0 0 0 .944-2.368h-.471Z" style="fill:#fff;stroke-width:0"/><path class="cls-1" d="M14.856.862c.293 0 .564.13.767.348.203.217.315.514.315.81 0 .305-.015.601-.03.898h1c.886 0 1.615.695 1.615 1.556v.044c0 2.801-1.976 5.16-4.658 5.863-.81 1.925-1.834 3.037-2.908 3.333l.556 3.08h1.426a.74.74 0 0 1 .752.725c0 .4-.337.723-.752.723H6.72a.738.738 0 0 1-.752-.723c0-.4.337-.724.752-.724h1.427l.555-3.081c-1.074-.348-2.04-1.224-2.794-3.152-2.675-.225-4.771-2.389-4.771-5.024V4.474c0-.861.728-1.556 1.615-1.556h1c-.016-.297-.03-.593-.03-.897a1.191 1.191 0 0 1 .307-.811c.203-.217.481-.348.774-.348h10.053m-5.552 2.91.002-.004-.002.004-.421.818-.932.13a.592.592 0 0 0-.473.384.56.56 0 0 0 .15.58l.676.629-.157.897a.563.563 0 0 0 .568.661c.095 0 .19-.022.28-.067l.835-.42.834.42c.088.05.18.072.271.072.12 0 .24-.039.352-.108a.572.572 0 0 0 .226-.558l-.158-.89.676-.637a.56.56 0 0 0 .15-.579.582.582 0 0 0-.473-.384l-.932-.13-.42-.818a.578.578 0 0 0-.526-.311.59.59 0 0 0-.526.31m5.537 4.62c1.308-.833 2.18-2.26 2.18-3.873v-.044a.114.114 0 0 0-.113-.108h-1.12c-.173 1.484-.496 2.844-.947 4.024m-9.82.507c-.548-1.288-.954-2.823-1.15-4.531h-1.12c-.06 0-.112.05-.112.108v1.064c0 1.528.992 2.838 2.382 3.359m5.755-4.307.003.005-.003-.005m4.08-4.528H4.803c-.506 0-1.001.22-1.358.602a2 2 0 0 0-.523 1.454h-.17C1.42 2.118.337 3.175.337 4.474v1.064c0 2.843 2.163 5.285 5.01 5.76.626 1.413 1.435 2.37 2.455 2.903l-.324 1.794H6.72c-.856 0-1.552.683-1.552 1.524s.696 1.523 1.552 1.523h6.219c.856 0 1.552-.683 1.552-1.523s-.696-1.524-1.552-1.524h-.758l-.322-1.788c.997-.534 1.88-1.61 2.588-3.163 2.89-.926 4.876-3.557 4.876-6.526 0-1.343-1.084-2.4-2.415-2.4h-.17v-.097c0-.502-.193-.996-.53-1.357a1.838 1.838 0 0 0-1.352-.602Zm-6.31 5.383.448-.063a.8.8 0 0 0 .6-.426L9.83 4.5l.084.164.145.282a.8.8 0 0 0 .682.448l.376.053-.31.292a.8.8 0 0 0-.24.722l.078.44-.456-.23a.8.8 0 0 0-.719 0l-.456.23.078-.449a.8.8 0 0 0-.242-.724l-.304-.282Z"/></svg>