<svg id="Layer_1" data-name="Layer 1" xmlns="http://www.w3.org/2000/svg" viewBox="0 0 19.66 19.66"><defs><style>.cls-1{fill:#843225;stroke-width:0}</style></defs><path class="cls-1" d="M7.156 18.926c-1.423 0-2.648-.318-3.744-.972-1.042-.621-1.74-1.286-2.198-2.093-.447-.793-.696-1.69-.762-2.746-.097-1.546.125-2.886.675-4.097a10.17 10.17 0 0 1 2.078-2.97 13.81 13.81 0 0 1 4.59-3.067c1.717-.695 3.431-1.048 5.094-1.048 1.695.01 3.254.346 4.693 1.001.398.182.9.454 1.248.952.202.291.323.573.36.838.061.42.04.836.015 1.153-.037.45-.343.783-.801.865a1.51 1.51 0 0 1-.277.026c-.185 0-.355-.04-.504-.12 0 0-.495.685-.738 1.015-.197.268-.34.462-.504.636-.24.256-.5.381-.797.381-.172 0-.352-.044-.55-.134l-.341-.146c-.081.153-.16.296-.24.44-.08.146-.162.292-.24.44-.231.446-.626.701-1.083.701-.164 0-.334-.033-.504-.098-.24-.092-.443-.17-.644-.236-.598.487-1.204 1.024-1.596 1.718-.181.324-.3.652-.342.95-.052.368-.03.398.387.518a.91.91 0 0 0 .259.039c.236 0 .463-.1.694-.304a2.03 2.03 0 0 1 .284-.226.955.955 0 0 1 .502-.154c.173 0 .331.054.465.156.428-.463.914-.931 1.57-1.223.091-.04.181-.078.272-.105.1-.028.197-.043.29-.043.31 0 .56.156.698.421l.12-.18c.06-.09.105-.187.153-.285.064-.132.13-.264.21-.386.235-.35.556-.543.907-.543.323 0 .639.17.887.477.262.326.41.724.44 1.18a3.527 3.527 0 0 1-.219 1.505c-.387 1.033-1.087 1.927-2.205 2.813-1.365 1.084-2.94 1.704-4.159 2.122-1.34.461-2.573.724-3.767.806-.227.015-.453.023-.676.023Z"/><path class="cls-1" d="M12.89 2.334h.058c1.55.008 3.051.32 4.467.964.42.191.819.433 1.086.817.137.198.26.433.294.665.05.35.04.711.011 1.064-.02.267-.191.453-.474.505-.07.012-.138.02-.204.02a.62.62 0 0 1-.52-.249c-.012-.014-.029-.025-.059-.053-.336.463-.658.913-.986 1.359-.15.204-.299.413-.472.598-.164.175-.326.257-.507.257a.93.93 0 0 1-.383-.098c-.143-.066-.292-.12-.432-.19a.376.376 0 0 0-.163-.046c-.089 0-.158.054-.217.17-.169.331-.359.65-.53.98-.165.316-.422.484-.728.484a1.01 1.01 0 0 1-.361-.072c-.245-.093-.49-.188-.74-.266a.255.255 0 0 0-.074-.01.256.256 0 0 0-.152.043c-.678.55-1.335 1.127-1.766 1.893a3.198 3.198 0 0 0-.39 1.09c-.09.632.133.804.672.959.127.036.25.053.37.053.352 0 .672-.15.959-.403.073-.064.145-.134.227-.185a.566.566 0 0 1 .294-.095c.178 0 .327.12.42.359.115-.112.226-.208.325-.316.422-.459.87-.885 1.453-1.144.071-.033.144-.065.219-.086a.662.662 0 0 1 .18-.027c.216 0 .36.137.404.392.025.149.08.23.165.23.044 0 .098-.022.16-.07.17-.128.306-.312.424-.493.138-.212.222-.459.361-.668.163-.244.366-.365.573-.365.198 0 .4.11.576.328.226.28.33.605.352.955.03.458-.029.902-.193 1.339-.413 1.1-1.178 1.924-2.08 2.64-1.204.956-2.595 1.562-4.04 2.058-1.19.408-2.406.698-3.665.783a9.58 9.58 0 0 1-.648.023c-1.246 0-2.44-.26-3.54-.916-.827-.494-1.569-1.09-2.053-1.947-.452-.8-.656-1.67-.712-2.573-.084-1.347.074-2.66.64-3.906a9.713 9.713 0 0 1 1.997-2.853 13.354 13.354 0 0 1 4.458-2.978c1.583-.642 3.231-1.02 4.944-1.02m0-.8c-1.718 0-3.482.363-5.245 1.078a14.2 14.2 0 0 0-4.723 3.154A10.55 10.55 0 0 0 .764 8.853c-.58 1.272-.812 2.674-.712 4.287.07 1.117.337 2.07.815 2.917.491.87 1.235 1.581 2.34 2.24 1.16.692 2.452 1.029 3.95 1.029.232 0 .466-.009.701-.025 1.229-.083 2.495-.353 3.87-.825 1.25-.429 2.865-1.065 4.279-2.188 1.176-.934 1.917-1.882 2.331-2.985a4 4 0 0 0 .243-1.67 2.44 2.44 0 0 0-.528-1.407c-.325-.404-.751-.626-1.199-.626-.48 0-.932.262-1.238.721a3.44 3.44 0 0 0-.23.418 1.191 1.191 0 0 0-.62-.165 1.5 1.5 0 0 0-.397.057 2.458 2.458 0 0 0-.329.126c-.611.272-1.081.675-1.489 1.094a1.166 1.166 0 0 0-.38-.063 1.35 1.35 0 0 0-.715.215 2.06 2.06 0 0 0-.298.232l-.038.033c-.23.203-.38.203-.43.203a.532.532 0 0 1-.148-.022 2.508 2.508 0 0 1-.108-.033l.006-.046c.034-.244.14-.532.295-.809.32-.57.818-1.037 1.328-1.463.132.048.264.098.395.149.241.092.46.134.673.134.61 0 1.135-.334 1.437-.915.077-.146.157-.29.237-.436l.066-.118c.25.113.483.169.713.169.407 0 .773-.172 1.09-.51.187-.2.338-.405.484-.604l.05-.067c.187-.255.373-.512.561-.772.114.027.234.04.36.04.111 0 .227-.01.346-.032.636-.115 1.079-.598 1.129-1.229a5.614 5.614 0 0 0-.018-1.241c-.047-.327-.19-.666-.428-1.007-.406-.585-1-.902-1.411-1.089a11.63 11.63 0 0 0-4.795-1.036h-.062Z"/><path d="M7.156 18.326c-1.422 0-2.647-.319-3.744-.972-1.043-.622-1.742-1.288-2.198-2.094-.446-.79-.696-1.689-.762-2.745-.097-1.547.125-2.886.675-4.096a10.17 10.17 0 0 1 2.078-2.971 13.81 13.81 0 0 1 4.59-3.066c1.714-.696 3.428-1.048 5.093-1.048 1.696.008 3.254.344 4.694 1 .399.182.902.456 1.248.953.202.29.323.572.36.837.061.419.04.837.015 1.153-.037.451-.344.783-.801.865a1.591 1.591 0 0 1-.276.027 1.06 1.06 0 0 1-.505-.121l-.738 1.015c-.194.264-.338.46-.503.635-.242.258-.503.383-.798.383-.172 0-.352-.044-.55-.135 0 0-.284-.12-.341-.146-.08.152-.4.73-.479.881-.232.445-.627.7-1.084.7-.164 0-.333-.033-.503-.097-.214-.083-.428-.166-.645-.236-.6.489-1.206 1.025-1.596 1.717-.181.325-.3.653-.342.95-.052.369-.03.398.387.518a.933.933 0 0 0 .259.038c.236 0 .463-.098.694-.303a2.03 2.03 0 0 1 .284-.225.957.957 0 0 1 .502-.155c.174 0 .331.054.465.156.428-.464.914-.93 1.57-1.223a2.03 2.03 0 0 1 .273-.105c.1-.029.195-.042.288-.042.31 0 .56.155.7.42l.12-.18c.057-.089.104-.188.152-.284a3.35 3.35 0 0 1 .21-.387c.234-.35.556-.544.906-.544.324 0 .64.17.888.479.262.326.41.723.44 1.18a3.579 3.579 0 0 1-.218 1.504c-.387 1.031-1.088 1.926-2.206 2.814-1.367 1.085-2.941 1.704-4.159 2.122-1.342.46-2.574.723-3.767.804-.227.015-.453.024-.676.024Z" style="fill:#fff;stroke-width:0"/><path class="cls-1" d="M12.89 1.734h.058c1.55.008 3.051.32 4.467.964.42.191.819.433 1.086.817.137.198.26.433.294.665.05.35.04.711.011 1.064-.02.267-.191.453-.474.505-.07.012-.138.02-.204.02a.62.62 0 0 1-.52-.249c-.012-.014-.029-.025-.059-.053-.336.463-.658.913-.986 1.359-.15.204-.299.413-.472.598-.164.175-.326.257-.507.257a.93.93 0 0 1-.383-.098c-.143-.066-.292-.12-.432-.19a.375.375 0 0 0-.163-.046c-.089 0-.158.054-.217.17-.169.331-.359.65-.53.98-.165.316-.422.484-.728.484a1.01 1.01 0 0 1-.361-.072c-.245-.093-.49-.188-.74-.266a.255.255 0 0 0-.074-.01.256.256 0 0 0-.152.043c-.678.55-1.335 1.127-1.766 1.893a3.198 3.198 0 0 0-.39 1.09c-.09.632.133.804.672.959.127.036.25.053.37.053.352 0 .672-.15.959-.403.073-.064.145-.134.227-.185a.566.566 0 0 1 .294-.095c.178 0 .327.12.42.359.115-.112.226-.208.325-.316.422-.459.87-.885 1.453-1.145.071-.032.144-.064.219-.085a.662.662 0 0 1 .18-.027c.216 0 .36.137.404.392.025.149.08.23.165.23.044 0 .098-.022.16-.07.17-.128.306-.312.424-.493.138-.212.222-.459.361-.668.163-.244.366-.365.573-.365.198 0 .4.11.576.328.226.28.33.605.352.955.03.458-.029.902-.193 1.339-.413 1.1-1.178 1.924-2.08 2.64-1.204.956-2.595 1.562-4.04 2.058-1.19.408-2.406.698-3.665.783a9.565 9.565 0 0 1-.648.023c-1.246 0-2.44-.26-3.54-.916-.827-.494-1.569-1.09-2.053-1.947-.452-.8-.656-1.67-.712-2.573-.084-1.347.074-2.66.64-3.906a9.713 9.713 0 0 1 1.997-2.853 13.354 13.354 0 0 1 4.458-2.978c1.583-.642 3.231-1.02 4.944-1.02m0-.8c-1.718 0-3.482.363-5.245 1.078a14.2 14.2 0 0 0-4.723 3.154A10.55 10.55 0 0 0 .764 8.253c-.58 1.272-.812 2.674-.712 4.287.07 1.117.337 2.07.815 2.917.491.87 1.235 1.58 2.34 2.24 1.16.692 2.452 1.029 3.95 1.029.232 0 .466-.009.701-.025 1.229-.083 2.495-.353 3.87-.825 1.25-.429 2.865-1.065 4.279-2.188 1.176-.934 1.917-1.882 2.331-2.985a4 4 0 0 0 .243-1.67 2.44 2.44 0 0 0-.528-1.407C17.728 9.222 17.302 9 16.854 9c-.48 0-.932.262-1.238.721a3.44 3.44 0 0 0-.23.418 1.191 1.191 0 0 0-.62-.165 1.5 1.5 0 0 0-.397.057 2.458 2.458 0 0 0-.329.126c-.611.272-1.081.675-1.489 1.094a1.166 1.166 0 0 0-.38-.063 1.35 1.35 0 0 0-.715.215 2.06 2.06 0 0 0-.298.232l-.038.033c-.23.203-.38.203-.43.203a.532.532 0 0 1-.148-.022 2.546 2.546 0 0 1-.108-.033l.006-.046c.034-.244.14-.532.295-.809.32-.57.818-1.037 1.328-1.463.132.048.264.098.395.149.241.092.46.134.673.134.61 0 1.135-.334 1.437-.915.077-.146.157-.29.237-.435l.066-.12c.25.114.483.17.713.17.407 0 .773-.172 1.09-.51.187-.2.338-.405.484-.604l.05-.067c.187-.255.373-.512.561-.772.114.027.234.04.36.04.111 0 .227-.01.346-.032.636-.115 1.079-.598 1.129-1.229a5.614 5.614 0 0 0-.018-1.241c-.047-.327-.19-.666-.428-1.007-.406-.585-1-.902-1.411-1.089A11.63 11.63 0 0 0 12.952.934h-.062Z"/></svg>