<svg id="Layer_1" data-name="Layer 1" xmlns="http://www.w3.org/2000/svg" viewBox="0 0 19.66 19.66"><defs><style>.cls-3{stroke-width:0;fill:#843225}</style></defs><path d="M5.205 19.258c-1.136 0-2.648-.495-3.406-2.85L.703 6.62c-.057-.677.367-.86.626-.91l4.739-.217C6.738 2.176 8.386.984 9.735.984c1.348 0 3.001 1.191 3.684 4.508l4.868.21c.513.104.74.46.658.941l-1.052 9.686c-.775 2.434-2.287 2.928-3.423 2.928H5.205Zm6.454-13.83C11.13 3.5 10.32 2.8 9.756 2.8s-1.375.7-1.904 2.626h3.807Z" style="fill:#843225;stroke-width:0;fill-rule:evenodd"/><path class="cls-3" d="M9.735 1.384c1.404 0 2.812 1.498 3.351 4.493l5.184.225c.234.05.328.2.281.474l-1.055 9.71c-.563 1.747-1.619 2.57-3.026 2.57H5.205c-1.43 0-2.462-.823-3.025-2.57L1.1 6.576c-.023-.274.048-.424.306-.474l4.996-.225c.527-2.995 1.929-4.493 3.333-4.493M7.34 5.827h4.831c-.516-2.284-1.465-3.425-2.415-3.425s-1.9 1.141-2.416 3.425M9.735.584c-1.464 0-3.234 1.203-3.994 4.522l-4.371.197a.798.798 0 0 0-.116.013c-.506.098-1.021.499-.95 1.328l1.08 9.73a.802.802 0 0 0 .034.157c.833 2.583 2.52 3.126 3.787 3.126h9.265c1.793 0 3.138-1.11 3.787-3.126a.799.799 0 0 0 .034-.159l1.055-9.71c.112-.643-.251-1.202-.91-1.343a.798.798 0 0 0-.132-.016l-4.56-.198c-.772-3.318-2.546-4.52-4.009-4.52ZM8.393 5.027c.453-1.321 1.031-1.825 1.363-1.825.33 0 .909.504 1.362 1.825H8.393Z"/><path d="M5.205 18.666c-1.136 0-2.648-.494-3.406-2.848L.703 6.029c-.057-.676.366-.86.625-.911l4.74-.217C6.738 1.585 8.386.393 9.735.393c1.348 0 3.001 1.192 3.684 4.507l4.868.211c.514.105.74.463.658.941l-1.052 9.686c-.775 2.434-2.287 2.928-3.423 2.928H5.205Zm6.454-13.83C11.13 2.909 10.32 2.21 9.756 2.21s-1.375.698-1.904 2.625h3.807Z" style="fill:#fff;stroke-width:0;fill-rule:evenodd"/><path class="cls-3" d="M9.735.793c1.404 0 2.812 1.498 3.351 4.493l5.184.225c.234.05.328.2.281.474l-1.055 9.71c-.563 1.747-1.619 2.57-3.026 2.57H5.205c-1.43 0-2.462-.823-3.025-2.57L1.1 5.985c-.023-.275.048-.424.306-.474l4.996-.225C6.929 2.291 8.33.793 9.735.793M7.34 5.236h4.831c-.516-2.284-1.465-3.426-2.415-3.426s-1.9 1.142-2.416 3.426M9.735-.007c-1.464 0-3.234 1.203-3.994 4.522l-4.371.197a.798.798 0 0 0-.116.013c-.506.098-1.021.498-.95 1.328l1.08 9.73a.802.802 0 0 0 .034.157c.833 2.583 2.52 3.126 3.787 3.126h9.265c1.793 0 3.138-1.11 3.787-3.126a.799.799 0 0 0 .034-.159l1.055-9.71c.112-.643-.251-1.203-.91-1.343a.798.798 0 0 0-.132-.016l-4.56-.198c-.772-3.319-2.546-4.52-4.009-4.52ZM8.393 4.436C8.846 3.115 9.424 2.61 9.756 2.61c.33 0 .909.505 1.362 1.826H8.393Z"/></svg>