<svg id="Layer_1" data-name="Layer 1" xmlns="http://www.w3.org/2000/svg" viewBox="0 0 19.66 19.66"><defs><style>.cls-1,.cls-2{fill:#843225;stroke-width:0}.cls-2{fill:#fff}</style></defs><path class="cls-1" d="m.365 6.935.07-.46c.011-.075.063-.313.063-.313L2.71 3.497a2.654 2.654 0 0 1 2.045-.963h2.14l-.956 4.401H.365Z"/><path class="cls-1" d="m6.398 2.934-.781 3.6H.83c.01-.063.021-.127.036-.19l2.152-2.591a2.258 2.258 0 0 1 1.737-.819h1.643m.992-.8H4.755a3.05 3.05 0 0 0-2.353 1.108L.25 5.833l-.12.146-.043.184c-.02.084-.036.17-.049.255l-.135.916h6.359l.137-.63.781-3.6.21-.97Zm-.779 4.801.955-4.401h4.706l.956 4.401H6.611z"/><path class="cls-1" d="m11.95 2.934.782 3.6H7.108l.78-3.6h4.062m.645-.8H7.244l-.137.63-.781 3.6-.21.97h7.608l-.21-.97-.782-3.6-.137-.63ZM9.744 18.321l-.29-.017-2.85-10.838h6.632l-2.848 10.83-.284.021a2.422 2.422 0 0 1-.206.008l-.154-.004Z"/><path class="cls-1" d="M12.718 7.865 10.074 17.92a2.22 2.22 0 0 1-.308.003L7.122 7.865h5.596m1.037-.8h-7.67l.263 1.004 2.644 10.056.148.564.582.032a3.222 3.222 0 0 0 .415-.005l.566-.045.145-.549L13.49 8.069l.264-1.004Zm-.01.4h5.497l-.03.43a2.742 2.742 0 0 1-.03.235l-.014.096-7.198 9.79-.09.042a2.905 2.905 0 0 1-.314.128l-.702.234 2.88-10.954Z"/><path class="cls-1" d="M18.812 7.865a2.361 2.361 0 0 1-.024.202l-7.081 9.63a2.263 2.263 0 0 1-.268.11l2.614-9.942h4.759m.86-.8h-6.235l-.157.597-2.614 9.941-.378 1.438 1.408-.477a3.05 3.05 0 0 0 .362-.147l.176-.087.117-.158 7.082-9.631.115-.156.03-.192c.015-.09.025-.18.032-.27l.062-.858Zm-5.932-.13-.955-4.401h2.065c.791 0 1.537.351 2.045.963L19.3 6.39l-.212.463-.294.081H13.74Z"/><path class="cls-1" d="M14.85 2.934c.67 0 1.307.3 1.738.819l2.242 2.7-.038.081h-4.73l-.781-3.6h1.57m0-.8h-2.562l.21.97.782 3.6.136.63h5.887l.214-.464.038-.08.212-.46-.323-.388-2.242-2.7a3.051 3.051 0 0 0-2.353-1.108ZM8.143 18.207a2.814 2.814 0 0 1-.417-.167l-.084-.043L.48 8.257l-.015-.095a2.7 2.7 0 0 1-.033-.266l-.033-.43h5.556l2.88 10.958-.69-.217Z"/><path class="cls-1" d="m5.645 7.865 2.619 9.96a2.256 2.256 0 0 1-.356-.142L.858 8.097a2.333 2.333 0 0 1-.028-.232h4.815m.617-.8H-.03l.062.858c.007.104.02.207.038.31l.032.186.112.152 7.05 9.586.112.154.17.086c.15.075.307.138.483.192l1.374.422-.365-1.39-2.619-9.959-.157-.597Z"/><path class="cls-2" d="m.364 6.335.07-.461c.012-.075.064-.312.064-.312L2.71 2.897a2.65 2.65 0 0 1 2.045-.964h2.14l-.956 4.402H.364Z"/><path class="cls-1" d="m6.398 2.334-.781 3.6H.83c.01-.063.021-.127.036-.19l2.152-2.591a2.258 2.258 0 0 1 1.737-.819h1.643m.992-.8H4.755a3.05 3.05 0 0 0-2.353 1.108L.25 5.233l-.12.146-.043.184a3.13 3.13 0 0 0-.049.255l-.135.916h6.359l.137-.63.781-3.6.21-.97Z"/><path class="cls-2" d="m6.611 6.335.955-4.402h4.706l.956 4.402H6.611z"/><path class="cls-1" d="m11.95 2.334.782 3.6H7.108l.78-3.6h4.062m.645-.8H7.244l-.137.63-.781 3.6-.21.97h7.608l-.21-.97-.782-3.6-.137-.63Z"/><path class="cls-2" d="m9.744 17.721-.29-.016-2.85-10.84h6.632l-2.848 10.831-.284.021a2.422 2.422 0 0 1-.206.008l-.154-.004Z"/><path class="cls-1" d="M12.718 7.265 10.074 17.32a2.22 2.22 0 0 1-.308.003L7.122 7.265h5.596m1.037-.8h-7.67l.263 1.004 2.644 10.056.149.564.581.032a3.214 3.214 0 0 0 .415-.005l.566-.045.145-.549L13.49 7.469l.264-1.004Z"/><path class="cls-2" d="M13.745 6.865h5.497l-.03.43a2.764 2.764 0 0 1-.03.235l-.014.097-7.198 9.789-.09.043a2.7 2.7 0 0 1-.31.126l-.708.243 2.883-10.963Z"/><path class="cls-1" d="M18.812 7.265a2.361 2.361 0 0 1-.024.202l-7.081 9.63a2.258 2.258 0 0 1-.268.11l2.614-9.942h4.759m.86-.8h-6.235l-.157.597-2.614 9.941-.378 1.438 1.408-.477a3.05 3.05 0 0 0 .362-.147l.177-.087.116-.158 7.082-9.631.115-.156.03-.192c.015-.09.025-.18.032-.27l.062-.858Z"/><path class="cls-2" d="m13.74 6.335-.955-4.402h2.065a2.65 2.65 0 0 1 2.045.965L19.3 5.791l-.212.463-.294.08H13.74Z"/><path class="cls-1" d="M14.85 2.334c.67 0 1.307.3 1.738.819l2.242 2.7-.038.082h-4.73l-.781-3.6h1.57m0-.8h-2.562l.21.969.782 3.6.136.63h5.887l.214-.464.038-.08.212-.46-.323-.388-2.242-2.7a3.051 3.051 0 0 0-2.353-1.108Z"/><path class="cls-2" d="M8.146 17.607a2.63 2.63 0 0 1-.417-.166l-.086-.043L.48 7.657l-.015-.095a2.684 2.684 0 0 1-.033-.266L.4 6.865h5.555l2.879 10.952-.687-.21Z"/><path class="cls-1" d="m5.645 7.265 2.619 9.96a2.25 2.25 0 0 1-.356-.142L.858 7.497a2.332 2.332 0 0 1-.028-.232h4.815m.617-.8H-.03l.062.858c.007.104.02.207.038.31l.032.186.112.152 7.05 9.586.112.154.17.086c.15.075.307.138.483.192l1.374.422-.365-1.39-2.62-9.959-.156-.597Z"/></svg>