<svg id="Layer_1" data-name="Layer 1" xmlns="http://www.w3.org/2000/svg" viewBox="0 0 20 20"><defs><style>.cls-3{stroke-width:0;fill:#843225}</style></defs><path d="M12.41 18.83a.794.794 0 0 1-.81-.814v-4.773H8.435v4.773c0 .425-.387.813-.81.813H3.593c-.415 0-.879-.378-.879-.883v-7.048H1.406a.657.657 0 0 1-.593-.34.745.745 0 0 1 .054-.763.442.442 0 0 1 .065-.076l8.612-7.793a.387.387 0 0 1 .087-.06.84.84 0 0 1 .377-.095c.17 0 .322.06.431.17l8.596 7.778c.226.228.29.521.181.782a.638.638 0 0 1-.586.397h-1.377v7.048a.872.872 0 0 1-.88.883H12.41Z" style="fill:#843225;stroke-width:0;fill-rule:evenodd"/><path class="cls-3" d="M10.01 2.17a.2.2 0 0 1 .144.053l8.612 7.793c.205.206.068.482-.137.482h-1.777v7.448a.47.47 0 0 1-.478.483H12.41c-.274 0-.41-.207-.41-.414v-5.172H8.036v5.172c0 .207-.205.414-.41.414H3.592c-.205 0-.478-.207-.478-.483v-7.448H1.406c-.273 0-.342-.276-.205-.482l8.612-7.793a.445.445 0 0 1 .196-.052m0-.8c-.186 0-.379.047-.557.137a.8.8 0 0 0-.176.121L.664 9.422a.798.798 0 0 0-.13.153c-.24.362-.268.812-.073 1.173.185.345.538.55.945.55h.909v6.648c0 .756.673 1.283 1.278 1.283h4.032c.645 0 1.21-.567 1.21-1.214v-4.372H11.2v4.372a1.2 1.2 0 0 0 1.21 1.214h3.964c.717 0 1.278-.563 1.278-1.283v-6.648h.977c.418 0 .793-.252.956-.644.17-.405.07-.877-.25-1.202L10.69 1.63c-.153-.156-.406-.258-.682-.258Z"/><path d="M12.41 18.23a.795.795 0 0 1-.81-.815v-4.771H8.435v4.771c0 .426-.387.815-.81.815H3.593c-.415 0-.879-.378-.879-.883v-7.048H1.406a.657.657 0 0 1-.593-.34.747.747 0 0 1 .054-.765.442.442 0 0 1 .065-.076l8.612-7.793a.393.393 0 0 1 .09-.06.842.842 0 0 1 .374-.094.6.6 0 0 1 .43.168l8.597 7.78c.226.228.29.522.181.781a.638.638 0 0 1-.586.399h-1.377v7.048a.872.872 0 0 1-.88.883H12.41Z" style="fill:#ffcc01;stroke-width:0;fill-rule:evenodd"/><path class="cls-3" d="M10.01 1.57a.2.2 0 0 1 .144.053l8.612 7.793c.205.206.068.482-.137.482h-1.777v7.448a.47.47 0 0 1-.478.483H12.41c-.274 0-.41-.207-.41-.414v-5.172H8.036v5.172c0 .207-.205.414-.41.414H3.592c-.205 0-.478-.207-.478-.483V9.898H1.406c-.273 0-.342-.276-.205-.482l8.612-7.793a.445.445 0 0 1 .196-.052m0-.8c-.186 0-.379.047-.557.137a.8.8 0 0 0-.176.121L.664 8.822a.798.798 0 0 0-.13.153c-.24.362-.268.812-.073 1.173.185.345.538.55.945.55h.909v6.648c0 .756.673 1.283 1.278 1.283h4.032c.645 0 1.21-.567 1.21-1.214v-4.372H11.2v4.372a1.2 1.2 0 0 0 1.21 1.214h3.964c.717 0 1.278-.563 1.278-1.283v-6.648h.977c.418 0 .793-.252.956-.644.17-.405.07-.877-.25-1.202L10.69 1.03c-.153-.156-.406-.258-.682-.258Z"/></svg>