<svg id="Layer_1" data-name="Layer 1" xmlns="http://www.w3.org/2000/svg" viewBox="0 0 20 20"><defs><style>.cls-1{fill:#fff;fill-rule:evenodd;stroke-width:0}.cls-2{stroke-width:0;fill:#843225}</style></defs><path class="cls-1" d="M4.08 19.568c-.235 0-.465-.045-.681-.134a1.785 1.785 0 0 1-.99-.988 1.808 1.808 0 0 1-.134-.7V2.85c0-.486.19-.942.534-1.285a1.835 1.835 0 0 1 1.286-.532h9.218c.48 0 .948.194 1.287.532.344.343.533.799.533 1.285v3.667a2.06 2.06 0 0 1 1.943-1.672h.012c.314 0 .558.045.79.134a2.038 2.038 0 0 1 .927 3.081c-.168.238-.39.442-.644.59-.056.033-.082.075-.082.094v1.83c0 .704-.576 1.276-1.283 1.276H15.17l-.037 5.9c0 .479-.195.948-.534 1.286a1.831 1.831 0 0 1-1.286.532H4.095l-.015-.4v.4Zm7.203-9.33a.037.037 0 0 0-.037.039v2.036l1.416.038.037-2.074-1.416-.038Zm-3.372 0a.038.038 0 0 0-.038.039v2.036l1.416.038.038-2.074-1.416-.038Zm-3.372 0a.038.038 0 0 0-.038.039v2.036l1.416.038.037-2.074-1.415-.038Zm10.594-.51 1.043.039.038-1.022c0-.019-.025-.061-.08-.092a2.086 2.086 0 0 1-.664-.607 2.051 2.051 0 0 1-.337-.795V9.73ZM4.729 3.538a.038.038 0 0 0-.038.038v4.181l7.971.038.037-4.22-7.97-.037Z"/><path class="cls-2" d="M13.313 1.433a1.421 1.421 0 0 1 1.42 1.417v6.88c0 .241.196.437.438.437h1.005a.438.438 0 0 0 .438-.438v-.984c0-.186-.12-.347-.282-.44a1.667 1.667 0 0 1-.836-1.466 1.664 1.664 0 0 1 1.65-1.595 1.635 1.635 0 0 1 1.504.995 1.645 1.645 0 0 1-.69 2.066c-.16.092-.28.253-.28.439v1.83a.879.879 0 0 1-.883.876H15.17a.438.438 0 0 0-.438.438v5.862a1.416 1.416 0 0 1-1.42 1.417H4.077a1.405 1.405 0 0 1-1.298-.872 1.397 1.397 0 0 1-.104-.545V2.85a1.416 1.416 0 0 1 1.42-1.417h9.218M4.728 8.194h7.934a.438.438 0 0 0 .438-.437V3.574a.438.438 0 0 0-.438-.438H4.728a.438.438 0 0 0-.438.438v4.183c0 .241.196.437.438.437m6.556 4.557h1.378a.438.438 0 0 0 .438-.438v-2.037a.438.438 0 0 0-.438-.438h-1.378a.438.438 0 0 0-.438.438v2.037c0 .242.196.438.438.438m-3.373 0H9.29a.438.438 0 0 0 .438-.438v-2.037a.438.438 0 0 0-.438-.438H7.91a.438.438 0 0 0-.438.438v2.037c0 .242.196.438.438.438m-3.372 0h1.378a.438.438 0 0 0 .438-.438v-2.037a.438.438 0 0 0-.438-.438H4.54a.438.438 0 0 0-.438.438v2.037c0 .242.196.438.438.438m0 2.984h8.191a.37.37 0 1 0 0-.739H4.54a.37.37 0 0 0 0 .74M13.313.632H4.095c-.592 0-1.15.23-1.569.649-.42.418-.65.975-.65 1.568v14.9a2.187 2.187 0 0 0 1.373 2.056c.264.107.543.161.828.161h9.236c.592 0 1.15-.23 1.569-.649a2.2 2.2 0 0 0 .65-1.568v-5.5h1.264a1.68 1.68 0 0 0 1.683-1.675V8.923a2.43 2.43 0 0 0 .653-.632c.294-.418.45-.908.447-1.419a2.419 2.419 0 0 0-1.557-2.265 2.425 2.425 0 0 0-.875-.163l-.08.001a2.47 2.47 0 0 0-1.534.612V2.85c0-.592-.231-1.15-.651-1.568a2.207 2.207 0 0 0-1.57-.65ZM5.09 3.936h7.21v3.458H5.09V3.936Zm10.443 5.431v-.656c.088.078.182.15.281.214v.442h-.281Zm-3.887 1.271h.654v1.313h-.654v-1.313Zm-3.373 0h.655v1.313h-.655v-1.313Zm-3.372 0h.654v1.313h-.654v-1.313Z"/><path class="cls-1" d="M4.073 18.968c-.232 0-.46-.045-.674-.133a1.785 1.785 0 0 1-.99-.99 1.803 1.803 0 0 1-.134-.699V2.25c0-.487.19-.943.534-1.285A1.835 1.835 0 0 1 4.095.432h9.218c.48 0 .948.195 1.287.533.344.342.533.798.533 1.285v3.667a2.04 2.04 0 0 1 .567-1.069 2.055 2.055 0 0 1 1.377-.602h.014c.316 0 .558.046.788.135a2.02 2.02 0 0 1 1.3 1.895 2.03 2.03 0 0 1-.374 1.184c-.168.238-.39.442-.644.59-.056.033-.082.075-.082.093v1.831c0 .704-.576 1.276-1.283 1.276H15.17l-.037 5.9c0 .487-.19.943-.534 1.285a1.831 1.831 0 0 1-1.286.533H4.095l-.022-.4v.4Zm7.21-9.33a.037.037 0 0 0-.037.039v2.036l1.416.038.037-2.074-1.416-.039Zm-3.372 0a.038.038 0 0 0-.038.039v2.036l1.416.038.038-2.074-1.416-.039Zm-3.372 0a.038.038 0 0 0-.038.039v2.036l1.416.038.037-2.074-1.415-.039Zm10.594-.508 1.043.037.038-1.022c0-.022-.03-.063-.08-.092a2.05 2.05 0 0 1-1-1.401V9.13ZM4.729 2.937a.037.037 0 0 0-.038.037v4.183l7.971.037.037-4.22-7.97-.037Z"/><path class="cls-2" d="M13.313.833a1.421 1.421 0 0 1 1.42 1.417v6.88c0 .241.196.437.438.437h1.005a.438.438 0 0 0 .438-.438v-.984c0-.186-.12-.347-.282-.44a1.667 1.667 0 0 1-.836-1.466 1.664 1.664 0 0 1 1.65-1.595 1.636 1.636 0 0 1 1.504.995 1.645 1.645 0 0 1-.69 2.066c-.16.092-.28.253-.28.439v1.83a.879.879 0 0 1-.884.876h-1.625a.438.438 0 0 0-.438.438v5.862a1.416 1.416 0 0 1-1.42 1.417H4.077a1.405 1.405 0 0 1-1.298-.872 1.397 1.397 0 0 1-.104-.545V2.25A1.416 1.416 0 0 1 4.095.833h9.218M4.728 7.594h7.934a.438.438 0 0 0 .438-.437V2.974a.438.438 0 0 0-.438-.438H4.728a.438.438 0 0 0-.438.438v4.183c0 .241.196.437.438.437m6.556 4.557h1.378a.438.438 0 0 0 .438-.438V9.676a.438.438 0 0 0-.438-.438h-1.378a.438.438 0 0 0-.438.438v2.037c0 .242.196.438.438.438m-3.373 0H9.29a.438.438 0 0 0 .438-.438V9.676a.438.438 0 0 0-.438-.438H7.91a.438.438 0 0 0-.438.438v2.037c0 .242.196.438.438.438m-3.372 0h1.378a.438.438 0 0 0 .438-.438V9.676a.438.438 0 0 0-.438-.438H4.54a.438.438 0 0 0-.438.438v2.037c0 .242.196.438.438.438m0 2.984h8.191a.37.37 0 1 0 0-.739H4.54a.37.37 0 0 0 0 .74M13.313.032H4.095c-.592 0-1.15.23-1.569.649-.42.418-.65.975-.65 1.568v14.9a2.188 2.188 0 0 0 1.373 2.056c.264.107.543.161.828.161h9.236c.592 0 1.15-.23 1.569-.649a2.2 2.2 0 0 0 .65-1.568v-5.5h1.264a1.68 1.68 0 0 0 1.683-1.675V8.323a2.43 2.43 0 0 0 .653-.632c.294-.418.45-.908.447-1.419a2.419 2.419 0 0 0-1.557-2.265 2.427 2.427 0 0 0-.875-.163l-.08.001a2.47 2.47 0 0 0-1.534.612V2.25c0-.592-.231-1.15-.651-1.568a2.207 2.207 0 0 0-1.57-.65ZM5.09 3.336h7.21v3.458H5.09V3.336Zm10.443 5.431v-.656c.088.078.182.15.281.214v.442h-.281Zm-3.887 1.271h.654v1.313h-.654v-1.313Zm-3.373 0h.655v1.313h-.655v-1.313Zm-3.372 0h.654v1.313h-.654v-1.313Z"/></svg>