<svg id="Layer_1" data-name="Layer 1" xmlns="http://www.w3.org/2000/svg" viewBox="0 0 20 20"><defs><style>.cls-1{fill:#843225;stroke-width:0}</style></defs><path class="cls-1" d="M5.928 19.568c-1.414 0-2.608-1.263-2.608-2.757V3.788c0-1.519 1.17-2.755 2.608-2.755h8.144c1.413 0 2.608 1.262 2.608 2.755v13.023c0 1.494-1.195 2.757-2.608 2.757H5.928Zm6.881-3.86c-.116.033-.222.188-.222.375 0 .505.562 1.013.884 1.244.317-.23.869-.73.844-1.224 0-.166-.045-.352-.255-.402a.682.682 0 0 0-.061-.003c-.128 0-.198.045-.248.111a.4.4 0 0 1-.64 0 .254.254 0 0 0-.225-.107.52.52 0 0 0-.077.005Zm-4.3-8.25c-.086 0-.175.007-.264.023-.68.166-1.154.82-1.154 1.62 0 1.995 2.51 3.744 2.919 4.016.682-.492 2.865-2.165 2.9-4.024.032-.789-.467-1.478-1.16-1.613a1.558 1.558 0 0 0-.349-.041c-.437 0-.837.207-1.095.567a.403.403 0 0 1-.318.167H9.98a.4.4 0 0 1-.315-.154 1.474 1.474 0 0 0-1.155-.562ZM6.49 3.273c-.321.231-.884.74-.884 1.243 0 .195.11.339.295.383a.404.404 0 0 0 .336-.142.4.4 0 0 1 .293-.128l.022.001a.4.4 0 0 1 .298.16.257.257 0 0 0 .227.108c.19-.04.297-.195.297-.382 0-.503-.563-1.012-.884-1.243Z"/><path class="cls-1" d="M14.072 1.433c1.204 0 2.207 1.07 2.207 2.356V16.81c0 1.285-1.003 2.356-2.207 2.356H5.928c-1.204 0-2.207-1.07-2.207-2.356V3.79c0-1.285.963-2.356 2.207-2.356h8.144M5.944 5.299a.78.78 0 0 0 .585-.268.655.655 0 0 0 .546.268c.044 0 .09-.004.136-.011.321-.086.562-.386.562-.771 0-.814-.923-1.5-1.204-1.67-.02-.022-.05-.033-.08-.033s-.06.01-.08.032c-.28.172-1.204.857-1.204 1.67 0 .386.241.686.602.772a.93.93 0 0 0 .137.01M9.98 7.774a1.871 1.871 0 0 0-1.806-.686c-.882.214-1.484 1.028-1.484 2.014 0 2.099 2.407 3.898 3.13 4.369.04.043.1.064.165.064s.135-.021.196-.064c.682-.471 3.089-2.27 3.13-4.37.04-.985-.603-1.841-1.485-2.013a1.934 1.934 0 0 0-.425-.048c-.587 0-1.096.283-1.421.734m3.45 7.796a.655.655 0 0 0-.545-.268.908.908 0 0 0-.137.011c-.32.086-.561.386-.561.771 0 .814.923 1.5 1.203 1.67.02.022.05.033.08.033s.06-.01.08-.032c.282-.172 1.205-.857 1.164-1.67 0-.386-.2-.686-.561-.772a.612.612 0 0 0-.18-.027.691.691 0 0 0-.542.284M14.072.633H5.928C4.27.633 2.92 2.048 2.92 3.789V16.81c0 1.74 1.349 3.156 3.007 3.156h8.144c1.658 0 3.007-1.415 3.007-3.156V3.79c0-1.74-1.349-3.156-3.007-3.156ZM6.006 4.426c.054-.2.26-.445.483-.643.189.17.365.374.443.557a.8.8 0 0 0-.926.086ZM9.98 8.573h.015a.8.8 0 0 0 .634-.333.932.932 0 0 1 .772-.4c.08 0 .165.009.25.028.523.102.884.616.86 1.2-.025 1.273-1.27 2.63-2.517 3.552-1.036-.74-2.504-2.145-2.504-3.52 0-.612.35-1.109.873-1.235a1.58 1.58 0 0 1 .146-.007c.327 0 .641.152.84.407a.8.8 0 0 0 .63.308Zm3.45 7.796a.8.8 0 0 0 .476-.157c-.044.185-.23.414-.437.603-.188-.169-.364-.372-.44-.555a.8.8 0 0 0 .401.109Z"/><path d="M5.928 18.968c-1.414 0-2.608-1.263-2.608-2.756V3.188c0-1.52 1.17-2.756 2.608-2.756h8.144c1.413 0 2.608 1.263 2.608 2.756v13.024c0 1.493-1.195 2.756-2.608 2.756H5.928Zm6.881-3.86c-.116.032-.222.188-.222.375 0 .503.562 1.012.884 1.243.318-.23.869-.733.844-1.223 0-.166-.045-.352-.255-.403a.678.678 0 0 0-.06-.003c-.128 0-.2.045-.25.112a.4.4 0 0 1-.64 0 .254.254 0 0 0-.224-.108.52.52 0 0 0-.077.006Zm-4.3-8.25a1.52 1.52 0 0 0-.264.023c-.68.166-1.154.819-1.154 1.62 0 2 2.51 3.745 2.919 4.015.683-.49 2.865-2.16 2.9-4.023.032-.788-.467-1.479-1.16-1.613a1.598 1.598 0 0 0-.348-.04c-.438 0-.838.206-1.096.566a.403.403 0 0 1-.318.167H9.98a.4.4 0 0 1-.315-.154 1.476 1.476 0 0 0-1.156-.562Zm-2.02-4.184c-.321.231-.884.74-.884 1.243 0 .195.11.339.295.383a.405.405 0 0 0 .337-.142.4.4 0 0 1 .292-.127l.022.001a.397.397 0 0 1 .297.16.26.26 0 0 0 .227.107c.191-.04.298-.195.298-.382 0-.503-.563-1.012-.884-1.243Z" style="fill:#fff;stroke-width:0"/><path class="cls-1" d="M14.072.833c1.204 0 2.207 1.07 2.207 2.356V16.21c0 1.285-1.003 2.356-2.207 2.356H5.928c-1.204 0-2.207-1.07-2.207-2.356V3.19c0-1.285.963-2.356 2.207-2.356h8.144M5.944 4.699a.78.78 0 0 0 .585-.268.655.655 0 0 0 .546.268c.044 0 .09-.004.136-.011.321-.086.562-.386.562-.771 0-.814-.923-1.5-1.204-1.67-.02-.022-.05-.033-.08-.033s-.06.01-.08.032c-.28.172-1.204.857-1.204 1.67 0 .386.241.686.602.772a.93.93 0 0 0 .137.01M9.98 7.174a1.871 1.871 0 0 0-1.806-.686c-.882.214-1.484 1.028-1.484 2.014 0 2.099 2.407 3.898 3.13 4.369.04.043.1.064.165.064s.135-.021.196-.064c.682-.471 3.089-2.27 3.13-4.37.04-.985-.603-1.841-1.485-2.013a1.934 1.934 0 0 0-.425-.048c-.587 0-1.096.283-1.421.734m3.45 7.796a.655.655 0 0 0-.545-.268.908.908 0 0 0-.137.011c-.32.086-.561.386-.561.771 0 .814.923 1.5 1.203 1.67.02.022.05.033.08.033s.06-.01.08-.032c.282-.172 1.205-.857 1.164-1.67 0-.386-.2-.686-.561-.772a.612.612 0 0 0-.18-.027.691.691 0 0 0-.543.284M14.072.033H5.928C4.27.033 2.92 1.448 2.92 3.189V16.21c0 1.74 1.349 3.156 3.007 3.156h8.144c1.658 0 3.007-1.415 3.007-3.156V3.19c0-1.74-1.349-3.156-3.007-3.156ZM6.006 3.826c.054-.2.26-.445.483-.643.189.17.365.374.443.557a.8.8 0 0 0-.926.086ZM9.98 7.973h.015a.8.8 0 0 0 .634-.333.932.932 0 0 1 .772-.4c.08 0 .165.009.25.028.523.102.884.616.86 1.2-.025 1.273-1.27 2.63-2.517 3.552C8.958 11.28 7.49 9.875 7.49 8.5c0-.612.35-1.109.873-1.235a1.58 1.58 0 0 1 .146-.007c.327 0 .641.152.84.407a.8.8 0 0 0 .63.308Zm3.45 7.796a.8.8 0 0 0 .476-.157c-.044.185-.23.414-.437.603-.188-.168-.364-.372-.44-.555a.8.8 0 0 0 .401.109Z"/></svg>