<svg id="Layer_1" data-name="Layer 1" xmlns="http://www.w3.org/2000/svg" viewBox="0 0 20 20"><defs><style>.cls-1{fill:#843225;stroke-width:0}</style></defs><path class="cls-1" d="M11.537 19.552a.721.721 0 0 1-.559-.864c.244-2.564.095-3.352-.332-4.421a9.752 9.752 0 0 1-1.486 3.212c-.032.044-.778 1.066-1.988 1.066-.244 0-.49-.042-.734-.126-.992-.342-1.358-1.137-1.447-1.766a2.195 2.195 0 0 1-1.379-.201 2.224 2.224 0 0 1-1.163-1.561c-.154-.848.245-1.617.496-2 .687-1.046 1.71-1.703 2.778-2.178-1.018-.056-2.295-.276-3.473-1.048-.535-.352-1.444-1.363-1.048-2.682.283-.945 1.007-1.388 1.708-1.514-.1-.462-.053-.958.142-1.387a2.234 2.234 0 0 1 1.516-1.226c.152-.034.311-.05.474-.05.634 0 1.19.253 1.544.465.904.542 1.541 1.333 2.03 2.194-.026-.991.114-2 .61-2.929.214-.403.697-1.122 1.516-1.394a2.225 2.225 0 0 1 1.928.271c.391.267.687.67.84 1.118.224-.087.505-.158.819-.158.526 0 1.004.193 1.423.574 1.018.926.761 2.261.483 2.838-.569 1.177-1.463 2.022-2.444 2.689a8.884 8.884 0 0 1 1.103-.075c.907 0 1.695.167 2.408.51.412.198 1.15.652 1.456 1.458.238.628.164 1.37-.192 1.939a2.24 2.24 0 0 1-1.089.883c.26.608.344 1.464-.32 2.255-.44.525-1.046.802-1.751.802a2.93 2.93 0 0 1-1.067-.204 6.993 6.993 0 0 1-2.008-1.333c.26.985.329 2.154.074 4.249-.082.375-.374.61-.717.61a1.29 1.29 0 0 1-.151-.016Z"/><path class="cls-1" d="M11.425 1.433c.36 0 .722.106 1.02.31.454.31.75.84.776 1.39l.034-.029s.463-.331 1.074-.331c.356 0 .762.113 1.154.47 1.066.97.391 2.369.391 2.369-.858 1.778-2.495 2.75-4.186 3.605l.026.066c1.027-.239 2.113-.484 3.18-.484.764 0 1.519.126 2.235.47.53.256 1.041.676 1.255 1.24a1.818 1.818 0 0 1-.157 1.583 1.82 1.82 0 0 1-1.358.832l.03.033s.877 1.127-.05 2.23c-.437.522-.985.66-1.443.66-.511 0-.908-.173-.908-.173-1.484-.642-2.558-1.796-3.407-3.099.837 2.034 1.354 2.741.916 6.335a.327.327 0 0 1-.638-.138c.345-3.584-.071-3.916-.871-5.903a9.43 9.43 0 0 1-1.663 4.378s-.643.898-1.662.898a1.85 1.85 0 0 1-.605-.104c-1.364-.47-1.191-1.888-1.191-1.888l.008-.043a1.791 1.791 0 0 1-.781.177c-.28 0-.561-.064-.811-.191a1.818 1.818 0 0 1-.951-1.277c-.108-.593.114-1.216.437-1.708 1.045-1.59 2.927-2.219 4.648-2.775l-.011-.07c-.505.037-1.012.064-1.514.064-1.376 0-2.722-.207-3.932-1 0 0-1.3-.852-.885-2.232.355-1.187 1.46-1.268 1.762-1.268.048 0 .076.002.077.002l.043.007a1.817 1.817 0 0 1-.05-1.591c.229-.5.7-.882 1.238-1.001a1.77 1.77 0 0 1 .386-.042c.47 0 .944.172 1.339.41 1.632.978 2.337 2.832 2.963 4.528l.029-.011c-.338-1.776-.689-3.728.206-5.408.277-.519.717-1.012 1.29-1.203.179-.06.368-.088.557-.088m0-.8c-.279 0-.551.043-.81.13-.704.234-1.323.797-1.743 1.585a5.58 5.58 0 0 0-.597 1.891 5.58 5.58 0 0 0-1.484-1.31c-.397-.24-1.024-.524-1.75-.524-.191 0-.38.02-.56.06a2.604 2.604 0 0 0-1.791 1.45 2.593 2.593 0 0 0-.228 1.254c-.699.226-1.358.748-1.644 1.7-.463 1.543.591 2.722 1.213 3.13.787.515 1.61.8 2.378.954-.688.433-1.316.984-1.799 1.719-.49.746-.688 1.56-.555 2.29a2.603 2.603 0 0 0 1.376 1.847 2.601 2.601 0 0 0 1.244.277c.188.66.651 1.374 1.632 1.711.286.098.577.148.866.148 1.39 0 2.222-1.106 2.312-1.232a9.91 9.91 0 0 0 1.135-2.086c.105.676.098 1.545-.045 3.035-.044.275.014.553.166.79a1.12 1.12 0 0 0 .947.515 1.133 1.133 0 0 0 1.113-.96c.177-1.456.202-2.48.118-3.305.401.281.82.516 1.26.707.057.024.57.237 1.227.237.827 0 1.538-.326 2.056-.944a2.466 2.466 0 0 0 .518-2.305 2.587 2.587 0 0 0 1.152-3.172c-.263-.694-.851-1.29-1.656-1.676-.728-.35-1.524-.53-2.43-.548a6.646 6.646 0 0 0 1.549-2.042c.323-.67.619-2.222-.573-3.307-.488-.445-1.073-.68-1.693-.68-.212 0-.411.028-.59.07a2.595 2.595 0 0 0-.842-.96 2.628 2.628 0 0 0-1.472-.45Z"/><path d="M11.538 18.952a.725.725 0 0 1-.56-.864c.244-2.564.095-3.352-.332-4.421A9.752 9.752 0 0 1 9.16 16.88c-.032.044-.778 1.065-1.988 1.065-.244 0-.49-.042-.734-.126-.992-.342-1.358-1.137-1.447-1.765a2.195 2.195 0 0 1-1.379-.201 2.23 2.23 0 0 1-1.163-1.562c-.154-.848.245-1.616.496-2 .687-1.046 1.71-1.703 2.78-2.178-1.02-.057-2.297-.276-3.474-1.048-.536-.351-1.445-1.364-1.05-2.682.284-.946 1.008-1.39 1.709-1.514-.1-.462-.053-.958.142-1.387.28-.61.86-1.08 1.516-1.226.151-.034.31-.051.472-.051.635 0 1.19.254 1.546.467.904.54 1.541 1.332 2.03 2.192-.026-.99.114-1.998.61-2.929.215-.403.697-1.12 1.516-1.393a2.227 2.227 0 0 1 1.93.271c.389.267.685.67.837 1.118.225-.086.506-.158.82-.158.526 0 1.004.194 1.423.574 1.018.926.761 2.261.483 2.838-.568 1.176-1.462 2.02-2.443 2.688a8.839 8.839 0 0 1 1.101-.073c.908 0 1.695.166 2.41.51.411.198 1.15.65 1.455 1.457.238.627.163 1.37-.192 1.938a2.234 2.234 0 0 1-1.089.884c.26.608.345 1.465-.32 2.256-.44.524-1.046.801-1.75.801-.588 0-1.05-.197-1.069-.205a6.999 6.999 0 0 1-2.007-1.332c.26.986.329 2.154.074 4.25-.082.374-.374.609-.717.609a1.25 1.25 0 0 1-.15-.016Z" style="fill:#fff;stroke-width:0"/><path class="cls-1" d="M11.425.833c.36 0 .722.106 1.02.31.454.31.75.84.776 1.39l.034-.028s.463-.332 1.074-.332c.356 0 .762.113 1.154.47 1.066.97.391 2.369.391 2.369-.858 1.778-2.495 2.75-4.186 3.605l.026.066c1.027-.239 2.113-.484 3.18-.484.764 0 1.519.126 2.235.47.53.256 1.041.676 1.255 1.24a1.818 1.818 0 0 1-.157 1.583 1.82 1.82 0 0 1-1.358.832l.03.033s.877 1.127-.05 2.23c-.437.522-.985.66-1.443.66-.511 0-.908-.173-.908-.173-1.484-.642-2.558-1.796-3.407-3.099.837 2.034 1.354 2.741.916 6.335a.327.327 0 0 1-.638-.138c.345-3.584-.071-3.916-.871-5.903a9.43 9.43 0 0 1-1.663 4.378s-.643.898-1.662.898a1.85 1.85 0 0 1-.605-.104c-1.364-.47-1.191-1.888-1.191-1.888l.008-.043a1.791 1.791 0 0 1-.781.177c-.28 0-.561-.064-.811-.191a1.818 1.818 0 0 1-.951-1.277c-.108-.593.114-1.216.437-1.708 1.045-1.59 2.927-2.219 4.648-2.775l-.011-.07c-.505.037-1.012.064-1.514.064-1.376 0-2.722-.207-3.932-1 0 0-1.3-.852-.885-2.232C1.94 5.311 3.044 5.23 3.347 5.23c.048 0 .076.002.077.002l.043.007a1.817 1.817 0 0 1-.05-1.591c.229-.5.7-.882 1.238-1.001a1.73 1.73 0 0 1 .386-.042c.47 0 .944.172 1.339.41 1.632.978 2.337 2.832 2.963 4.528l.029-.011c-.338-1.776-.689-3.728.206-5.408.277-.519.717-1.012 1.29-1.202.179-.06.368-.09.557-.09m0-.8c-.279 0-.551.044-.81.13-.704.235-1.323.798-1.743 1.586a5.581 5.581 0 0 0-.597 1.891 5.58 5.58 0 0 0-1.484-1.31c-.397-.24-1.024-.524-1.75-.524-.191 0-.38.02-.56.06a2.605 2.605 0 0 0-1.791 1.45 2.593 2.593 0 0 0-.228 1.254c-.699.226-1.358.748-1.644 1.7-.463 1.543.591 2.722 1.213 3.13.787.515 1.61.8 2.378.954-.688.433-1.316.984-1.799 1.719-.49.746-.688 1.56-.555 2.29a2.603 2.603 0 0 0 1.376 1.847 2.601 2.601 0 0 0 1.244.277c.188.66.651 1.374 1.632 1.711.286.098.577.148.866.148 1.39 0 2.222-1.106 2.312-1.232a9.91 9.91 0 0 0 1.135-2.086c.105.676.098 1.545-.045 3.035-.044.275.014.553.166.79a1.12 1.12 0 0 0 .947.515 1.133 1.133 0 0 0 1.113-.96c.177-1.456.202-2.48.118-3.305a7.11 7.11 0 0 0 1.26.706c.057.025.57.238 1.227.238.827 0 1.538-.326 2.056-.944a2.466 2.466 0 0 0 .518-2.305 2.587 2.587 0 0 0 1.152-3.172c-.263-.694-.851-1.29-1.656-1.676-.728-.35-1.524-.53-2.43-.548a6.644 6.644 0 0 0 1.549-2.042c.323-.67.619-2.222-.573-3.307-.488-.445-1.073-.68-1.693-.68-.212 0-.411.028-.59.07a2.595 2.595 0 0 0-.842-.96 2.628 2.628 0 0 0-1.472-.45Z"/></svg>