<svg id="Layer_1" data-name="Layer 1" xmlns="http://www.w3.org/2000/svg" viewBox="0 0 20 20"><defs><style>.cls-1{fill:#843225;stroke-width:0}</style></defs><path class="cls-1" d="M10 19.567a9.239 9.239 0 0 1-2.847-.45c-.012-.006-.1-.038-.112-.043a9.218 9.218 0 0 1-4.386-3.142A9.185 9.185 0 0 1 .732 10.3a9.18 9.18 0 0 1 1.826-5.5c.014-.019.064-.082.082-.099A9.138 9.138 0 0 1 10 1.032c5.11 0 9.268 4.157 9.268 9.268a9.167 9.167 0 0 1-1.915 5.62A9.258 9.258 0 0 1 10 19.567Zm-1.718-2.25c.576.142 1.153.213 1.718.213s1.142-.071 1.718-.214l.482-1.88-.544-.817H8.344l-.544.818.482 1.88Zm7.78-3.087a7.206 7.206 0 0 0 1.124-3.204l-1.872-1.42-1.163.386-.854 3.415.548.823h2.217Zm-9.908 0 .548-.823-.853-3.414-1.171-.389-1.864 1.414a7.19 7.19 0 0 0 1.125 3.212h2.215Zm.393-6.152L8.98 6.456V5.312L6.914 3.766a7.28 7.28 0 0 0-2.417 1.858l.775 2.031 1.275.423Zm6.905 0 1.266-.422.777-2.043a7.288 7.288 0 0 0-2.41-1.847L11.019 5.31v1.144l2.433 1.623Z"/><path class="cls-1" d="M10 1.433c4.89 0 8.867 3.977 8.867 8.867a8.812 8.812 0 0 1-1.832 5.376l-.009.012a8.89 8.89 0 0 1-4.229 3.02.629.629 0 0 1-.074.027 8.825 8.825 0 0 1-2.723.432c-.95 0-1.865-.154-2.724-.432a.591.591 0 0 1-.074-.027 8.89 8.89 0 0 1-4.229-3.02l-.008-.012A8.811 8.811 0 0 1 1.133 10.3a8.81 8.81 0 0 1 1.745-5.26c.013-.014.02-.032.034-.045C4.532 2.837 7.102 1.433 10 1.433m3.394 7.086 1.63-.543.928-2.438a7.67 7.67 0 0 0-2.916-2.235l-2.417 1.808v1.558l2.775 1.85m-6.788 0 2.775-1.85V5.112L6.964 3.304A7.664 7.664 0 0 0 4.04 5.549l.926 2.426 1.64.545m-2.88 6.11h2.643l.764-1.149-.95-3.798-1.58-.525-2.206 1.674a7.58 7.58 0 0 0 1.328 3.799m9.906 0h2.644a7.578 7.578 0 0 0 1.328-3.79l-2.216-1.682-1.57.524-.95 3.798.764 1.15M10 17.93a7.59 7.59 0 0 0 2.047-.288l.585-2.28-.761-1.145H8.129l-.76 1.145.584 2.28A7.59 7.59 0 0 0 10 17.93M10 .633c-3.06 0-5.876 1.414-7.727 3.88a1.123 1.123 0 0 0-.037.05A9.577 9.577 0 0 0 .333 10.3a9.566 9.566 0 0 0 2.006 5.875 9.651 9.651 0 0 0 4.583 3.283 9.557 9.557 0 0 0 3.078.51 9.63 9.63 0 0 0 3.078-.51 9.653 9.653 0 0 0 4.58-3.28l.004-.004a9.566 9.566 0 0 0 2.005-5.873c0-5.332-4.336-9.668-9.667-9.668Zm1.419 4.879 1.71-1.279c.712.37 1.36.868 1.907 1.465l-.625 1.639-.9.3L11.42 6.24v-.73Zm-6.463.195a6.898 6.898 0 0 1 1.916-1.474l1.71 1.279v.73L6.486 7.636l-.909-.301-.622-1.629Zm-1.719 5.492 1.514-1.149.763.254.757 3.028-.331.499H4.16a6.802 6.802 0 0 1-.923-2.632Zm11.25-.896.753-.252 1.522 1.156a6.8 6.8 0 0 1-.922 2.624h-1.78l-.332-.499.758-3.03Zm-5.929 4.715h2.884l.326.491-.377 1.472c-.466.1-.932.15-1.391.15a6.69 6.69 0 0 1-1.391-.15l-.377-1.472.326-.49Z"/><path d="M10 18.968a9.271 9.271 0 0 1-2.847-.452 2.547 2.547 0 0 1-.112-.042 9.222 9.222 0 0 1-4.386-3.142A9.185 9.185 0 0 1 .732 9.7 9.181 9.181 0 0 1 2.63 4.11 9.155 9.155 0 0 1 10 .432c5.11 0 9.268 4.158 9.268 9.268a9.163 9.163 0 0 1-1.915 5.62A9.264 9.264 0 0 1 10 18.967Zm-1.718-2.252c.574.142 1.15.213 1.718.213s1.145-.07 1.718-.213l.482-1.88-.544-.818H8.344l-.544.818.482 1.88Zm7.78-3.085a7.206 7.206 0 0 0 1.124-3.204l-1.872-1.421-1.163.386-.854 3.415.548.824h2.217Zm-9.908 0 .548-.824-.853-3.414-1.171-.388-1.864 1.413c.114 1.15.5 2.252 1.125 3.213h2.215Zm.393-6.153L8.98 5.855V4.711L6.914 3.166a7.28 7.28 0 0 0-2.417 1.858l.775 2.031 1.275.423Zm6.905 0 1.266-.422.777-2.043a7.288 7.288 0 0 0-2.41-1.847L11.019 4.71v1.144l2.433 1.623Z" style="fill:#fff;stroke-width:0"/><path class="cls-1" d="M10 .833c4.89 0 8.867 3.977 8.867 8.867a8.812 8.812 0 0 1-1.832 5.376l-.009.012a8.89 8.89 0 0 1-4.229 3.02.629.629 0 0 1-.074.027 8.825 8.825 0 0 1-2.723.432c-.95 0-1.865-.154-2.724-.432a.596.596 0 0 1-.074-.027 8.89 8.89 0 0 1-4.229-3.02l-.008-.012A8.811 8.811 0 0 1 1.133 9.7a8.81 8.81 0 0 1 1.745-5.26c.013-.014.02-.032.034-.045C4.532 2.237 7.102.833 10 .833m3.394 7.086 1.63-.543.928-2.438a7.67 7.67 0 0 0-2.916-2.235l-2.417 1.808v1.558l2.775 1.85m-6.788 0 2.775-1.85V4.512L6.964 2.704A7.664 7.664 0 0 0 4.04 4.949l.926 2.426 1.64.545m-2.88 6.11h2.643l.764-1.149-.95-3.798-1.58-.525-2.206 1.674a7.58 7.58 0 0 0 1.328 3.799m9.906 0h2.644a7.579 7.579 0 0 0 1.328-3.79l-2.216-1.682-1.57.524-.95 3.798.764 1.15M10 17.33a7.59 7.59 0 0 0 2.047-.288l.585-2.28-.761-1.145H8.129l-.76 1.145.584 2.28A7.59 7.59 0 0 0 10 17.33M10 .033c-3.06 0-5.876 1.414-7.727 3.88a1.118 1.118 0 0 0-.037.05A9.577 9.577 0 0 0 .333 9.7a9.566 9.566 0 0 0 2.006 5.875 9.653 9.653 0 0 0 4.583 3.283 9.56 9.56 0 0 0 3.078.51 9.63 9.63 0 0 0 2.97-.472.975.975 0 0 0 .108-.038 9.653 9.653 0 0 0 4.58-3.28l.004-.005A9.567 9.567 0 0 0 19.667 9.7c0-5.33-4.336-9.667-9.667-9.667Zm1.419 4.879 1.71-1.279c.712.37 1.36.868 1.907 1.465l-.625 1.639-.9.3L11.42 5.64v-.73Zm-6.463.195a6.9 6.9 0 0 1 1.916-1.474l1.71 1.279v.73L6.486 7.036l-.909-.301-.622-1.629Zm-1.719 5.492L4.751 9.45l.763.254.757 3.028-.331.499H4.16a6.802 6.802 0 0 1-.923-2.632Zm11.25-.896.753-.252 1.522 1.156a6.801 6.801 0 0 1-.922 2.624h-1.78l-.332-.498.758-3.03Zm-5.929 4.715h2.884l.326.491-.377 1.472c-.466.1-.932.15-1.391.15a6.69 6.69 0 0 1-1.391-.15l-.377-1.472.326-.49Z"/></svg>