<svg id="Layer_1" data-name="Layer 1" xmlns="http://www.w3.org/2000/svg" viewBox="0 0 20 20"><defs><style>.cls-3{stroke-width:0;fill:#843225}</style></defs><path class="cls-3" d="M14.497 11.067a.402.402 0 0 1-.4-.419c.007-.141.024-.287.05-.436.03-.165.076-.316.137-.451.07-.16.169-.296.294-.402a.881.881 0 0 1 .555-.194c.218 0 .414.09.548.251a.74.74 0 0 1 .193.526c0 .126-.03.258-.087.391a1.085 1.085 0 0 1-.371.454l-.09.059-.12.063a1.689 1.689 0 0 1-.697.157l-.012.001Z"/><path class="cls-3" d="M15.133 9.566c.101 0 .182.036.242.107a.363.363 0 0 1 .098.269.59.59 0 0 1-.054.233.688.688 0 0 1-.235.286.78.78 0 0 1-.147.086 1.333 1.333 0 0 1-.54.12 2.77 2.77 0 0 1 .044-.385c.024-.131.06-.25.108-.358a.713.713 0 0 1 .188-.26.465.465 0 0 1 .296-.098m0-.8c-.293 0-.566.093-.79.269a1.532 1.532 0 0 0-.425.564 2.382 2.382 0 0 0-.164.54c-.03.167-.05.331-.057.49a.8.8 0 0 0 .826.838 2.098 2.098 0 0 0 .862-.2 1.797 1.797 0 0 0 .271-.16 1.483 1.483 0 0 0 .498-.616 1.39 1.39 0 0 0 .12-.55 1.15 1.15 0 0 0-.308-.807 1.095 1.095 0 0 0-.833-.368Z"/><path d="M2.356 17.585a1.932 1.932 0 0 1-1.93-1.929v-10.7c0-1.063.867-1.93 1.93-1.93h15.288c1.064 0 1.929.867 1.929 1.93v10.7a1.93 1.93 0 0 1-1.929 1.929H2.356Zm12.956-8.63a2.07 2.07 0 0 0-.75.132 1.7 1.7 0 0 0-.589.386 1.587 1.587 0 0 0-.249.327 2.075 2.075 0 0 0-.144.304 2.647 2.647 0 0 0-.144.913c0 .292.031.562.095.803.06.207.15.384.276.534a1.3 1.3 0 0 0 .486.336c.21.086.475.13.786.13.212 0 .41-.018.595-.054.2-.04.376-.081.527-.126.054-.017.107-.035.159-.054l-.054-.19a7.3 7.3 0 0 1-.301.08l-.2.044a2.64 2.64 0 0 1-.502.053c-.33 0-.595-.09-.786-.27a1.284 1.284 0 0 1-.239-.348 1.488 1.488 0 0 1-.1-.294.398.398 0 0 1 .357-.487c.324-.028.615-.084.863-.17a2.699 2.699 0 0 0 .461-.2 1.613 1.613 0 0 0 .386-.31c.05-.057.09-.115.124-.175a.812.812 0 0 0 .11-.413c0-.141-.021-.272-.064-.39a.713.713 0 0 0-.18-.28.833.833 0 0 0-.333-.195 1.245 1.245 0 0 0-.273-.066 2.153 2.153 0 0 0-.317-.02ZM8.954 11.59c0 .392.087.691.267.912.109.129.266.216.479.26.104.021.222.031.35.031.359 0 .667-.05.917-.15a1.33 1.33 0 0 0 .578-.456c.163-.226.289-.533.372-.908.04-.17.07-.352.092-.55a8.063 8.063 0 0 0 .045-1.196 5.096 5.096 0 0 0-.028-.38l-.013-.11h-.62a5.242 5.242 0 0 1 .052.809c-.001.289-.017.58-.049.877a5.455 5.455 0 0 1-.096.643l-.04.168c-.02.087-.047.178-.078.262a1.87 1.87 0 0 1-.199.403c-.174.251-.418.386-.691.386a.657.657 0 0 1-.622-.43 1.36 1.36 0 0 1-.073-.263 1.88 1.88 0 0 1-.028-.335v-2.52h-.615v2.547Zm-2.555.573c0 .103.015.192.043.267a.457.457 0 0 0 .13.182c.132.109.318.163.564.163.091 0 .176-.008.252-.025.081-.015.144-.027.196-.04l-.03-.208a.662.662 0 0 1-.214-.07l-.085-.056a.848.848 0 0 1-.09-.088c-.134-.152-.152-.375-.152-.527V9.044H6.4v3.12Zm-2.878-.134a1.103 1.103 0 0 0 .045.331c.025.074.07.15.132.22a.734.734 0 0 0 .22.137c.097.038.228.058.384.058.227 0 .432-.022.609-.068.04-.01.077-.021.112-.031l-.026-.17c-.035.002-.07.004-.103.004-.25 0-.437-.065-.57-.197-.136-.167-.189-.348-.189-.588V7.12l-.614.105v4.804Zm3.203-5.144c-.218 0-.28.073-.305.1-.05.057-.11.147-.11.332 0 .114.032.205.103.288.026.028.097.083.276.083a.495.495 0 0 0 .25-.052.454.454 0 0 0 .156-.364c0-.17-.054-.252-.096-.3-.02-.022-.077-.087-.274-.087Z" style="fill:#843225;stroke-width:0;fill-rule:evenodd"/><path class="cls-3" d="M17.644 3.427c.844 0 1.529.684 1.529 1.529v10.7a1.53 1.53 0 0 1-1.53 1.529H2.357a1.529 1.529 0 0 1-1.529-1.53v-10.7c0-.844.685-1.528 1.53-1.528h15.287M6.689 8.087a.862.862 0 0 0 .457-.11.6.6 0 0 0 .143-.122.847.847 0 0 0 .206-.583.823.823 0 0 0-.197-.564c-.132-.15-.323-.224-.574-.224-.268 0-.471.08-.609.242a.859.859 0 0 0-.206.591.82.82 0 0 0 .197.547c.138.149.332.223.583.223m-2.386 5.089a2.85 2.85 0 0 0 1.165-.233l-.135-.887a6.02 6.02 0 0 1-.224.036 1.405 1.405 0 0 1-.215.018c-.137 0-.233-.027-.287-.08-.047-.06-.071-.162-.071-.305v-5.08l-1.416.242v5.142a1.6 1.6 0 0 0 .063.448c.048.137.12.26.215.367.102.102.224.182.367.242.15.06.329.09.538.09m10.776.044c.239 0 .463-.02.672-.062a6.14 6.14 0 0 0 .564-.135 4.143 4.143 0 0 0 .529-.206l-.269-.931a6.017 6.017 0 0 1-.439.143 4.867 4.867 0 0 1-.412.099c-.15.03-.29.044-.421.044-.227 0-.397-.053-.511-.16a.837.837 0 0 1-.152-.226 1.08 1.08 0 0 1-.072-.214c.358-.03.678-.092.959-.188a3.268 3.268 0 0 0 .528-.231 1.811 1.811 0 0 0 .494-.398c.066-.076.122-.156.17-.24.107-.191.16-.394.16-.609a1.5 1.5 0 0 0-.09-.528 1.112 1.112 0 0 0-.277-.43 1.213 1.213 0 0 0-.483-.287 1.703 1.703 0 0 0-.345-.083 2.692 2.692 0 0 0-.372-.024c-.323 0-.622.053-.896.16a2.095 2.095 0 0 0-.726.476 1.991 1.991 0 0 0-.312.409 2.51 2.51 0 0 0-.172.36c-.113.305-.17.658-.17 1.058 0 .328.036.63.108.905.077.268.197.498.358.69.167.19.38.34.636.447.263.108.576.161.94.161m-4.787-1.03c-.119 0-.203-.06-.25-.179a.987.987 0 0 1-.05-.183 1.5 1.5 0 0 1-.022-.265v-2.92H8.553v2.947c0 .484.12.872.359 1.165.17.203.406.336.707.398.13.027.275.04.43.04.413 0 .768-.06 1.067-.179.304-.125.555-.322.752-.59.197-.275.343-.628.439-1.058.042-.181.076-.378.1-.591a8.684 8.684 0 0 0 .047-1.26 5.819 5.819 0 0 0-.102-.872h-1.416c.018.12.04.278.063.475.03.19.045.436.045.734 0 .275-.015.553-.045.833a5.605 5.605 0 0 1-.07.507l-.02.1a4.053 4.053 0 0 1-.104.376c-.043.12-.095.226-.155.316-.096.138-.215.206-.359.206m-3.155.986c.12 0 .233-.012.34-.036.108-.018.2-.039.279-.063l.188-.072a.526.526 0 0 0 .08-.044l-.125-.887a.593.593 0 0 1-.09.027 1.158 1.158 0 0 1-.143.009c-.054 0-.1-.01-.135-.03a.193.193 0 0 1-.053-.042c-.042-.048-.063-.14-.063-.278V8.643H6v3.52c0 .154.023.29.07.411a.853.853 0 0 0 .243.342c.21.173.484.26.824.26M17.644 2.627H2.356A2.331 2.331 0 0 0 .027 4.956v10.7a2.331 2.331 0 0 0 2.33 2.329h15.287a2.331 2.331 0 0 0 2.329-2.33v-10.7a2.331 2.331 0 0 0-2.33-2.328Zm-3.801 8.607a3.435 3.435 0 0 1-.007-.217c0-.303.04-.564.12-.778.031-.08.07-.162.113-.238.056-.096.117-.176.187-.246.131-.131.279-.228.451-.295.183-.072.38-.106.605-.106.094 0 .181.005.262.016.069.01.13.024.18.043a.485.485 0 0 1 .193.1.314.314 0 0 1 .09.133c.03.08.043.165.043.26a.426.426 0 0 1-.059.217.65.65 0 0 1-.076.107.995.995 0 0 1-.286.228 2.466 2.466 0 0 1-.386.168c-.221.075-.48.124-.771.149a.8.8 0 0 0-.66.46Z"/><path d="M14.497 10.456a.402.402 0 0 1-.4-.419c.007-.141.024-.288.05-.436.03-.164.076-.316.137-.452a1.09 1.09 0 0 1 .294-.4.881.881 0 0 1 .555-.195c.218 0 .414.09.548.25a.736.736 0 0 1 .193.526c0 .127-.03.259-.087.392a1.097 1.097 0 0 1-.371.453.818.818 0 0 1-.09.06l-.12.063-.115.05c-.162.064-.352.1-.582.107l-.012.001Z" style="fill:#fff;stroke-width:0"/><path class="cls-3" d="M15.133 8.954a.3.3 0 0 1 .242.108.363.363 0 0 1 .098.268.59.59 0 0 1-.054.233.688.688 0 0 1-.235.286.789.789 0 0 1-.147.086 1.332 1.332 0 0 1-.54.12 2.74 2.74 0 0 1 .044-.384c.024-.132.06-.251.108-.359a.713.713 0 0 1 .188-.26.465.465 0 0 1 .296-.098m0-.8a1.26 1.26 0 0 0-.79.27 1.532 1.532 0 0 0-.425.563 2.382 2.382 0 0 0-.164.54c-.03.168-.05.331-.057.491a.8.8 0 0 0 .826.837 2.096 2.096 0 0 0 .862-.2 1.792 1.792 0 0 0 .271-.16 1.483 1.483 0 0 0 .498-.616 1.39 1.39 0 0 0 .12-.549 1.15 1.15 0 0 0-.308-.808 1.095 1.095 0 0 0-.833-.368Z"/><path d="M2.356 16.974a1.932 1.932 0 0 1-1.93-1.93v-10.7c0-1.064.867-1.929 1.93-1.929h15.288a1.93 1.93 0 0 1 1.929 1.929v10.7a1.93 1.93 0 0 1-1.929 1.93H2.356Zm12.956-8.631a2.07 2.07 0 0 0-.75.133 1.7 1.7 0 0 0-.589.385 1.587 1.587 0 0 0-.249.327 2.075 2.075 0 0 0-.144.304 2.647 2.647 0 0 0-.144.913c0 .292.031.563.095.804.06.207.15.384.276.533.123.14.284.252.486.336.21.087.475.131.786.131.21 0 .408-.019.593-.056.204-.038.38-.08.529-.125.054-.016.107-.034.159-.053l-.055-.19-.296.078-.204.045a2.64 2.64 0 0 1-.502.053c-.33 0-.595-.09-.786-.27a1.315 1.315 0 0 1-.339-.641.398.398 0 0 1 .357-.488c.324-.027.615-.083.863-.168a2.696 2.696 0 0 0 .457-.2 1.436 1.436 0 0 0 .39-.311c.05-.057.09-.115.124-.175a.812.812 0 0 0 .11-.413c0-.142-.021-.273-.064-.39a.713.713 0 0 0-.18-.281.833.833 0 0 0-.333-.194 1.245 1.245 0 0 0-.273-.067 2.153 2.153 0 0 0-.317-.02Zm-6.358 2.636c0 .392.087.69.267.912.109.129.266.215.479.26.104.02.222.03.35.03.359 0 .667-.05.917-.149a1.35 1.35 0 0 0 .579-.457c.162-.225.288-.532.37-.907.04-.17.071-.354.093-.55a8.262 8.262 0 0 0 .045-1.196 5.124 5.124 0 0 0-.028-.381l-.013-.11h-.62c0 .01.002.02.003.029.03.19.048.457.048.781 0 .288-.016.58-.048.876-.009.1-.02.204-.035.307-.012.08-.06.337-.06.337l-.04.168a2.376 2.376 0 0 1-.079.261 1.87 1.87 0 0 1-.199.404c-.176.252-.419.386-.691.386a.657.657 0 0 1-.623-.432 1.46 1.46 0 0 1-.072-.263 1.853 1.853 0 0 1-.028-.334v-2.52h-.615v2.548Zm-2.555.573c0 .102.015.192.043.266.027.07.071.131.132.184.13.107.316.162.562.162.088 0 .174-.009.256-.026.078-.014.14-.027.192-.04l-.03-.207a.662.662 0 0 1-.214-.07l-.085-.056a1.07 1.07 0 0 1-.077-.073c-.147-.168-.165-.39-.165-.543V8.432H6.4v3.12Zm-2.878-.134a1.19 1.19 0 0 0 .045.333c.025.071.07.147.131.216.05.048.127.1.222.138.096.039.227.06.383.06.227 0 .432-.023.609-.07l.112-.03-.026-.17-.103.003c-.25 0-.437-.064-.57-.197-.136-.166-.189-.347-.189-.588V6.508l-.614.105v4.805Zm3.203-5.145c-.218 0-.28.074-.305.101-.05.057-.11.147-.11.332a.42.42 0 0 0 .103.288c.026.027.096.081.276.081a.501.501 0 0 0 .25-.05.454.454 0 0 0 .156-.364c0-.17-.054-.253-.096-.3-.02-.022-.077-.088-.274-.088Z" style="fill:#fff;stroke-width:0;fill-rule:evenodd"/><path class="cls-3" d="M17.644 2.815a1.53 1.53 0 0 1 1.529 1.53v10.7c0 .844-.685 1.528-1.53 1.528H2.357a1.529 1.529 0 0 1-1.529-1.529v-10.7a1.53 1.53 0 0 1 1.53-1.529h15.287M6.689 7.475a.862.862 0 0 0 .457-.11.6.6 0 0 0 .143-.122.847.847 0 0 0 .206-.582.823.823 0 0 0-.197-.564c-.132-.15-.323-.224-.574-.224-.268 0-.471.08-.609.242a.859.859 0 0 0-.206.59.82.82 0 0 0 .197.547c.138.15.332.224.583.224m-2.386 5.088a2.85 2.85 0 0 0 1.165-.233l-.135-.886a6.02 6.02 0 0 1-.224.035 1.405 1.405 0 0 1-.215.018c-.137 0-.233-.027-.287-.08-.047-.06-.071-.162-.071-.305v-5.08l-1.416.243v5.142a1.597 1.597 0 0 0 .063.448c.048.137.12.26.215.367.102.101.224.182.367.242.15.06.329.09.538.09m10.776.044c.239 0 .463-.021.672-.063a6.14 6.14 0 0 0 .564-.134 4.143 4.143 0 0 0 .529-.206l-.269-.932a6.088 6.088 0 0 1-.439.144 4.867 4.867 0 0 1-.412.098c-.15.03-.29.045-.421.045-.227 0-.397-.054-.511-.161a.837.837 0 0 1-.152-.226 1.08 1.08 0 0 1-.072-.213c.358-.03.678-.093.959-.189a3.268 3.268 0 0 0 .528-.23 2.024 2.024 0 0 0 .494-.398c.066-.077.122-.156.17-.24.107-.191.16-.394.16-.61 0-.19-.03-.367-.09-.528a1.112 1.112 0 0 0-.277-.43 1.213 1.213 0 0 0-.483-.286 1.703 1.703 0 0 0-.345-.084 2.692 2.692 0 0 0-.372-.024c-.323 0-.622.054-.896.161a2.095 2.095 0 0 0-.726.475 1.991 1.991 0 0 0-.312.409c-.064.11-.122.231-.172.361-.113.305-.17.657-.17 1.057 0 .329.036.63.108.905.077.269.197.499.358.69.167.191.38.34.636.448.263.107.576.16.94.16m-4.787-1.03c-.119 0-.203-.059-.25-.178a.987.987 0 0 1-.05-.184 1.5 1.5 0 0 1-.022-.264v-2.92H8.553v2.946c0 .484.12.873.359 1.165.17.204.406.337.707.399.13.027.275.04.43.04.413 0 .768-.06 1.067-.18.304-.124.555-.321.752-.59.197-.275.343-.627.439-1.057.042-.182.076-.379.1-.592a8.685 8.685 0 0 0 .047-1.26 5.819 5.819 0 0 0-.102-.871h-1.416c.018.12.04.277.063.474.03.191.045.436.045.735 0 .275-.015.552-.045.833a5.6 5.6 0 0 1-.07.507l-.02.099a4.053 4.053 0 0 1-.104.376 1.44 1.44 0 0 1-.155.317c-.096.137-.215.206-.359.206m-3.155.985c.12 0 .233-.012.34-.036.108-.018.2-.038.279-.062l.188-.072a.526.526 0 0 0 .08-.045l-.125-.887a.588.588 0 0 1-.09.027 1.158 1.158 0 0 1-.143.01c-.054 0-.1-.01-.135-.03a.193.193 0 0 1-.053-.042c-.042-.048-.063-.14-.063-.278V8.032H6v3.52c0 .153.023.29.07.41a.853.853 0 0 0 .243.342c.21.174.484.26.824.26M17.644 2.015H2.356a2.331 2.331 0 0 0-2.329 2.33v10.7a2.331 2.331 0 0 0 2.33 2.328h15.287a2.331 2.331 0 0 0 2.329-2.329v-10.7a2.331 2.331 0 0 0-2.33-2.329Zm-3.801 8.608a3.435 3.435 0 0 1-.007-.218c0-.302.04-.564.12-.777.031-.08.07-.163.113-.238.056-.096.117-.177.187-.246a1.29 1.29 0 0 1 .451-.296c.183-.071.38-.106.605-.106.094 0 .181.005.261.017.07.01.131.024.182.042a.485.485 0 0 1 .192.1.314.314 0 0 1 .09.133c.03.081.043.166.043.26a.426.426 0 0 1-.059.217.65.65 0 0 1-.076.108.993.993 0 0 1-.286.227 2.466 2.466 0 0 1-.386.168c-.221.075-.48.125-.771.15a.8.8 0 0 0-.66.459Z"/></svg>