<svg id="Layer_1" data-name="Layer 1" xmlns="http://www.w3.org/2000/svg" viewBox="0 0 20 20"><defs><style>.cls-1,.cls-2{fill:#843225;stroke-width:0}.cls-2{fill:#fff}</style></defs><path class="cls-1" d="M6.785 17.55c-.604 0-1.043-.427-1.043-1.014 0-.588.439-1.015 1.043-1.015h6.43c.604 0 1.042.427 1.042 1.015 0 .587-.438 1.014-1.043 1.014H6.785Z"/><path class="cls-1" d="M13.214 15.922c.386 0 .643.246.643.614s-.257.613-.643.613H6.786c-.386 0-.643-.245-.643-.613s.257-.614.643-.614h6.428m0-.8H6.786c-.823 0-1.443.608-1.443 1.414s.62 1.413 1.443 1.413h6.428c.823 0 1.443-.607 1.443-1.413s-.62-1.414-1.443-1.414ZM8.522 8.837a.4.4 0 0 1-.113-.017l-.835-.245a.4.4 0 0 1-.27-.263l-.386-1.228a.4.4 0 0 1 .062-.36c.328-.438.797-.8 1.433-1.103a.404.404 0 0 1 .396.03l1.094.736a.4.4 0 0 1 .176.332v.92a.4.4 0 0 1-.173.329l-1.157.798a.402.402 0 0 1-.227.07Z"/><path class="cls-1" d="m8.586 5.982 1.093.737v.92l-1.158.798-.835-.246L7.3 6.964c.321-.43.771-.736 1.286-.982m0-.8a.8.8 0 0 0-.345.078c-.696.333-1.214.733-1.582 1.225a.8.8 0 0 0-.122.719l.386 1.227a.8.8 0 0 0 .537.528l.836.245a.8.8 0 0 0 .68-.109l1.157-.797a.8.8 0 0 0 .346-.66v-.92a.8.8 0 0 0-.353-.663l-1.093-.736a.8.8 0 0 0-.447-.137ZM10 13.009c-.374 0-.669-.072-.928-.134a.4.4 0 0 1-.29-.269l-.385-1.227a.4.4 0 0 1 .063-.362l.515-.675a.4.4 0 0 1 .318-.158h1.414a.4.4 0 0 1 .319.158l.513.675a.401.401 0 0 1 .064.362l-.386 1.227a.4.4 0 0 1-.289.269c-.26.063-.555.134-.928.134Z"/><path class="cls-1" d="m10.707 10.584.514.675-.385 1.227c-.257.061-.515.123-.836.123s-.579-.062-.836-.123L8.78 11.26l.514-.675h1.414m0-.8H9.293a.8.8 0 0 0-.637.315l-.514.675a.8.8 0 0 0-.127.725l.386 1.227a.8.8 0 0 0 .578.538c.284.068.605.145 1.021.145.416 0 .737-.077 1.021-.145a.8.8 0 0 0 .578-.538l.386-1.227a.8.8 0 0 0-.127-.725l-.515-.675a.8.8 0 0 0-.636-.315Zm.771-1.01a.402.402 0 0 1-.228-.07l-1.156-.799a.4.4 0 0 1-.174-.329V6.72a.4.4 0 0 1 .168-.325l1.028-.737a.395.395 0 0 1 .368-.052 3.687 3.687 0 0 1 1.513 1.03.404.404 0 0 1 .084.387l-.385 1.228a.4.4 0 0 1-.27.264l-.836.245a.401.401 0 0 1-.112.016Z"/><path class="cls-1" d="M11.35 5.982c.514.184.964.491 1.35.92l-.386 1.228-.835.245-1.158-.797v-.86l1.029-.736m0-.8a.8.8 0 0 0-.466.15l-1.028.736a.8.8 0 0 0-.335.65v.86a.8.8 0 0 0 .346.658l1.158.798a.8.8 0 0 0 .679.109l.836-.246a.8.8 0 0 0 .538-.527l.385-1.228a.8.8 0 0 0-.168-.774A4.09 4.09 0 0 0 11.62 5.23a.8.8 0 0 0-.27-.047Zm-4.436 6.171a.401.401 0 0 1-.354-.215c-.322-.617-.494-1.133-.558-1.674a.4.4 0 0 1 .174-.378L7.27 8.35a.4.4 0 0 1 .337-.052l.836.246a.403.403 0 0 1 .266.257l.45 1.35a.403.403 0 0 1-.061.369l-.515.674a.4.4 0 0 1-.318.159h-1.35Z"/><path class="cls-1" d="m7.493 8.682.836.245.45 1.35-.515.675h-1.35c-.257-.49-.45-.982-.514-1.534l1.093-.736m0-.8a.8.8 0 0 0-.447.137l-1.093.736a.8.8 0 0 0-.348.756c.068.585.26 1.16.6 1.812a.8.8 0 0 0 .71.43h1.35a.8.8 0 0 0 .636-.316l.514-.675a.8.8 0 0 0 .123-.738l-.45-1.35a.8.8 0 0 0-.534-.514l-.836-.246a.8.8 0 0 0-.225-.032Zm4.243 3.471a.4.4 0 0 1-.319-.159l-.514-.674a.403.403 0 0 1-.062-.37l.45-1.35a.403.403 0 0 1 .267-.256l.836-.246a.4.4 0 0 1 .337.052l1.093.736a.4.4 0 0 1 .173.378 4.33 4.33 0 0 1-.569 1.694.4.4 0 0 1-.343.195h-1.35Z"/><path class="cls-1" d="m12.507 8.682 1.093.736a3.971 3.971 0 0 1-.514 1.534h-1.35l-.515-.675.45-1.35.836-.245m0-.8a.8.8 0 0 0-.225.032l-.836.246a.8.8 0 0 0-.534.514l-.45 1.35a.8.8 0 0 0 .123.738l.514.675a.8.8 0 0 0 .637.315h1.35a.8.8 0 0 0 .686-.389 4.75 4.75 0 0 0 .623-1.852.8.8 0 0 0-.348-.756l-1.093-.737a.8.8 0 0 0-.447-.136Z"/><path class="cls-1" d="M1.643 15.096C1.038 15.096.6 14.669.6 14.08V4.265c0-.588.438-1.015 1.043-1.015h16.714c.604 0 1.044.427 1.044 1.015v9.816c0 .588-.44 1.015-1.044 1.015H1.643ZM10 5.585c-2.084 0-3.778 1.61-3.778 3.588S7.916 12.76 10 12.76s3.779-1.61 3.779-3.588S12.084 5.585 10 5.585Z"/><path class="cls-1" d="M18.357 3.65c.386 0 .643.246.643.614v9.817c0 .369-.257.614-.643.614H1.643c-.386 0-.643-.245-.643-.614V4.264c0-.368.257-.613.643-.613h16.714M10 13.16c2.314 0 4.179-1.78 4.179-3.988S12.314 5.185 10 5.185 5.821 6.964 5.821 9.173 7.686 13.16 10 13.16m8.357-10.31H1.643C.82 2.85.2 3.458.2 4.264v9.817c0 .806.62 1.414 1.443 1.414h16.714c.823 0 1.443-.608 1.443-1.414V4.264c0-.806-.62-1.413-1.443-1.413ZM10 12.36c-1.863 0-3.379-1.43-3.379-3.188S8.137 5.985 10 5.985s3.379 1.43 3.379 3.188S11.863 12.36 10 12.36Z"/><path class="cls-2" d="M6.785 16.95c-.604 0-1.043-.428-1.043-1.014s.439-1.014 1.043-1.014h6.43c.604 0 1.042.427 1.042 1.014s-.438 1.013-1.043 1.013H6.785Z"/><path class="cls-1" d="M13.214 15.322c.386 0 .643.246.643.614s-.257.613-.643.613H6.786c-.386 0-.643-.245-.643-.613s.257-.614.643-.614h6.428m0-.8H6.786c-.823 0-1.443.608-1.443 1.414s.62 1.413 1.443 1.413h6.428c.823 0 1.443-.607 1.443-1.413s-.62-1.414-1.443-1.414Z"/><path class="cls-2" d="M8.522 8.237a.408.408 0 0 1-.114-.016l-.835-.246a.401.401 0 0 1-.269-.264l-.386-1.227a.4.4 0 0 1 .062-.359c.327-.438.796-.799 1.432-1.104a.4.4 0 0 1 .397.029l1.094.736a.4.4 0 0 1 .176.332v.921a.4.4 0 0 1-.173.33l-1.157.797a.402.402 0 0 1-.227.071Z"/><path class="cls-1" d="m8.586 5.382 1.093.737v.92l-1.158.798-.835-.246L7.3 6.364c.321-.43.771-.736 1.286-.982m0-.8a.8.8 0 0 0-.345.078c-.696.333-1.214.733-1.582 1.225a.8.8 0 0 0-.122.719l.386 1.227a.8.8 0 0 0 .537.528l.836.245a.8.8 0 0 0 .68-.109l1.157-.797a.8.8 0 0 0 .346-.66v-.92a.8.8 0 0 0-.353-.663L9.033 4.72a.8.8 0 0 0-.447-.137Z"/><path class="cls-2" d="M10 12.41c-.369 0-.667-.072-.928-.136a.4.4 0 0 1-.29-.268l-.385-1.227a.4.4 0 0 1 .063-.362l.515-.675a.4.4 0 0 1 .318-.158h1.414a.4.4 0 0 1 .319.158l.513.675a.401.401 0 0 1 .064.362l-.386 1.227a.4.4 0 0 1-.289.268c-.262.064-.56.135-.928.135Z"/><path class="cls-1" d="m10.707 9.984.514.675-.385 1.227c-.257.061-.515.123-.836.123s-.579-.062-.836-.123L8.78 10.66l.514-.675h1.414m0-.8H9.293a.8.8 0 0 0-.637.315l-.514.675a.8.8 0 0 0-.127.725l.386 1.227a.8.8 0 0 0 .578.538c.284.068.605.145 1.021.145.416 0 .737-.077 1.021-.145a.8.8 0 0 0 .578-.538l.386-1.227a.8.8 0 0 0-.127-.725l-.515-.675a.8.8 0 0 0-.636-.315Z"/><path class="cls-2" d="M11.479 8.176a.402.402 0 0 1-.228-.072l-1.156-.797a.4.4 0 0 1-.174-.33v-.859a.4.4 0 0 1 .168-.325l1.028-.736a.395.395 0 0 1 .368-.052 3.711 3.711 0 0 1 1.513 1.03.404.404 0 0 1 .084.388l-.385 1.226a.401.401 0 0 1-.269.264l-.836.246a.408.408 0 0 1-.113.017Z"/><path class="cls-1" d="M11.35 5.382c.514.184.964.491 1.35.92l-.386 1.228-.835.245-1.158-.797v-.86l1.029-.736m0-.8a.8.8 0 0 0-.466.15l-1.028.736a.8.8 0 0 0-.335.65v.86a.8.8 0 0 0 .346.658l1.158.798a.8.8 0 0 0 .679.109l.836-.246a.8.8 0 0 0 .538-.527l.385-1.228a.8.8 0 0 0-.168-.774A4.09 4.09 0 0 0 11.62 4.63a.8.8 0 0 0-.27-.047Z"/><path class="cls-2" d="M6.914 10.753a.401.401 0 0 1-.354-.215c-.322-.617-.494-1.133-.558-1.673a.4.4 0 0 1 .174-.379L7.27 7.75a.4.4 0 0 1 .336-.052l.836.245a.402.402 0 0 1 .267.257l.45 1.35a.403.403 0 0 1-.061.37l-.515.675a.4.4 0 0 1-.318.158h-1.35Z"/><path class="cls-1" d="m7.493 8.082.836.245.45 1.35-.515.675h-1.35c-.257-.49-.45-.982-.514-1.534l1.093-.736m0-.8a.8.8 0 0 0-.447.136l-1.093.737a.8.8 0 0 0-.348.756c.068.585.26 1.16.6 1.812a.8.8 0 0 0 .71.43h1.35a.8.8 0 0 0 .636-.316l.514-.675a.8.8 0 0 0 .123-.738l-.45-1.35a.8.8 0 0 0-.534-.514l-.836-.246a.8.8 0 0 0-.225-.032Z"/><path class="cls-2" d="M11.736 10.753a.4.4 0 0 1-.319-.158l-.514-.675a.403.403 0 0 1-.062-.37l.45-1.35a.402.402 0 0 1 .268-.257l.836-.245a.401.401 0 0 1 .336.052l1.093.736a.4.4 0 0 1 .173.38 4.41 4.41 0 0 1-.569 1.693.4.4 0 0 1-.343.194h-1.35Z"/><path class="cls-1" d="m12.507 8.082 1.093.736a3.971 3.971 0 0 1-.514 1.534h-1.35l-.515-.675.45-1.35.836-.245m0-.8a.8.8 0 0 0-.225.032l-.836.246a.8.8 0 0 0-.534.514l-.45 1.35a.8.8 0 0 0 .123.738l.514.675a.8.8 0 0 0 .637.315h1.35a.8.8 0 0 0 .686-.389 4.75 4.75 0 0 0 .623-1.852.8.8 0 0 0-.348-.756l-1.093-.737a.8.8 0 0 0-.447-.136Z"/><path class="cls-2" d="M1.643 14.495c-.605 0-1.043-.427-1.043-1.014V3.664c0-.587.438-1.014 1.043-1.014h16.714c.604 0 1.044.427 1.044 1.014v9.817c0 .587-.44 1.014-1.044 1.014H1.643ZM10 4.985c-2.084 0-3.778 1.61-3.778 3.588S7.916 12.161 10 12.161s3.779-1.61 3.779-3.588S12.084 4.985 10 4.985Z"/><path class="cls-1" d="M18.357 3.05c.386 0 .643.246.643.614v9.817c0 .369-.257.614-.643.614H1.643c-.386 0-.643-.245-.643-.614V3.664c0-.368.257-.613.643-.613h16.714M10 12.56c2.314 0 4.179-1.78 4.179-3.988S12.314 4.585 10 4.585 5.821 6.364 5.821 8.573 7.686 12.56 10 12.56m8.357-10.31H1.643C.82 2.25.2 2.858.2 3.664v9.817c0 .806.62 1.414 1.443 1.414h16.714c.823 0 1.443-.608 1.443-1.414V3.664c0-.806-.62-1.413-1.443-1.413ZM10 11.76c-1.863 0-3.379-1.43-3.379-3.188S8.137 5.385 10 5.385s3.379 1.43 3.379 3.188S11.863 11.76 10 11.76Z"/></svg>