<svg width="24" height="24" viewBox="0 0 24 24" fill="none" xmlns="http://www.w3.org/2000/svg">
<path fill-rule="evenodd" clip-rule="evenodd" d="M5.53925 22.0793C5.4683 22.0534 5.40241 22.0142 5.34449 21.9608C5.16132 21.7949 5.09616 21.5291 5.17942 21.2935L6.52896 17.5001C6.73951 17.637 6.9754 17.7322 7.22373 17.7704C7.30329 17.7826 7.38413 17.789 7.46581 17.789C7.52229 17.789 7.57731 17.786 7.63378 17.7801L9.06079 17.6371C9.30984 17.6371 9.65374 17.7749 9.78406 17.8919L10.7702 18.791L9.33011 22.8385C9.24685 23.074 9.03038 23.2339 8.78422 23.2414C8.53878 23.2495 8.31362 23.1029 8.21588 22.8718L7.53749 21.2706L6.01274 22.0519C5.86215 22.1282 5.69056 22.1364 5.53925 22.0793Z" fill="#834429"/>
<path fill-rule="evenodd" clip-rule="evenodd" d="M5.53925 22.0793C5.4683 22.0534 5.40241 22.0142 5.34449 21.9608C5.16132 21.7949 5.09616 21.5291 5.17942 21.2935L6.52896 17.5001C6.73951 17.637 6.9754 17.7322 7.22373 17.7704C7.30329 17.7826 7.38413 17.789 7.46581 17.789C7.52229 17.789 7.57731 17.786 7.63378 17.7801L9.06079 17.6371C9.30984 17.6371 9.65374 17.7749 9.78406 17.8919L10.7702 18.791L9.33011 22.8385C9.24685 23.074 9.03038 23.2339 8.78422 23.2414C8.53878 23.2495 8.31362 23.1029 8.21588 22.8718L7.53749 21.2706L6.01274 22.0519C5.86215 22.1282 5.69056 22.1364 5.53925 22.0793Z" fill="#834429"/>
<path fill-rule="evenodd" clip-rule="evenodd" d="M5.34449 21.9608C5.40241 22.0142 5.4683 22.0534 5.53925 22.0793C5.69056 22.1364 5.86215 22.1282 6.01274 22.0519L7.53749 21.2706L8.21588 22.8718C8.31362 23.1029 8.53878 23.2495 8.78422 23.2414C9.03038 23.2339 9.24685 23.074 9.33011 22.8385L10.7702 18.791L9.78406 17.8919C9.65374 17.7749 9.30984 17.6371 9.06079 17.6371L7.63378 17.7801C7.57731 17.786 7.52229 17.789 7.46581 17.789C7.38413 17.789 7.30329 17.7826 7.22373 17.7704C6.9754 17.7322 6.73951 17.637 6.52896 17.5001L5.17942 21.2935C5.09616 21.5291 5.16132 21.7949 5.34449 21.9608ZM15.233 8.91643C15.3988 8.74831 15.3467 8.58316 15.115 8.54909L13.5157 8.31135C13.284 8.27654 13.0081 8.07213 12.9039 7.85662L12.1893 6.37465C12.085 6.15913 11.9149 6.15913 11.8121 6.37465L11.0968 7.85662C10.9918 8.07213 10.7174 8.27654 10.4843 8.31135L8.88639 8.54909C8.65327 8.58316 8.60042 8.74905 8.76911 8.91643L9.92606 10.0703C10.094 10.2384 10.1997 10.5695 10.1599 10.8057L9.88624 12.4343C9.84642 12.6713 9.9847 12.7743 10.1925 12.6617L11.6231 11.8937C11.8309 11.7819 12.1719 11.7819 12.3797 11.8937L13.8096 12.6617C14.0174 12.7743 14.1549 12.6721 14.1151 12.4343L13.8422 10.8057C13.8024 10.5695 13.9081 10.2377 14.0753 10.0703L15.233 8.91643Z" fill="#834429"/>
<path fill-rule="evenodd" clip-rule="evenodd" d="M6.96198 9.58742C6.96198 12.4343 9.21797 14.7413 12.0003 14.7413C13.6186 14.7413 15.0584 13.9613 15.9801 12.7487C16.261 12.3792 16.4938 11.9695 16.6689 11.5294C16.9073 10.9301 17.0386 10.2745 17.0386 9.58742C17.0386 8.26725 16.5534 7.06293 15.7554 6.15101C15.6297 6.00739 15.4963 5.87103 15.3557 5.74261C14.4648 4.92845 13.2892 4.4335 12.0003 4.4335C9.21797 4.4335 6.96198 6.74125 6.96198 9.58742ZM12.0003 13.9845C11.2663 13.9845 10.5747 13.7958 9.96979 13.4629C9.96979 13.4629 9.51681 13.1469 9.22655 12.9445C8.29675 12.1386 7.70566 10.9348 7.70566 9.58742C7.70566 7.15557 9.63229 5.19034 12.0003 5.19034C13.4225 5.19034 14.6851 5.89876 15.467 6.99129C15.7684 7.41233 15.9983 7.89041 16.1385 8.40698C16.2129 8.68083 16.262 8.96549 16.2831 9.2582C16.291 9.36688 16.295 9.47666 16.295 9.58742C16.295 10.2733 16.1418 10.9221 15.8688 11.5C15.6058 12.0568 15.2315 12.5479 14.7757 12.9434L14.0307 13.4631C13.4258 13.7959 12.7343 13.9845 12.0003 13.9845ZM15.233 8.91643C15.3988 8.74831 15.3467 8.58316 15.115 8.54909L13.5157 8.31135C13.284 8.27654 13.0081 8.07213 12.9039 7.85662L12.1893 6.37465C12.085 6.15913 11.9149 6.15913 11.8121 6.37465L11.0968 7.85662C10.9918 8.07213 10.7174 8.27654 10.4843 8.31135L8.88639 8.54909C8.65327 8.58316 8.60042 8.74905 8.76911 8.91643L9.92606 10.0703C10.094 10.2384 10.1997 10.5695 10.1599 10.8057L9.88624 12.4343C9.84642 12.6713 9.9847 12.7743 10.1925 12.6617L11.6231 11.8937C11.8309 11.7819 12.1719 11.7819 12.3797 11.8937L13.8096 12.6617C14.0174 12.7743 14.1549 12.6721 14.1151 12.4343L13.8422 10.8057C13.8024 10.5695 13.9081 10.2377 14.0753 10.0703L15.233 8.91643Z" fill="#834429"/>
<path fill-rule="evenodd" clip-rule="evenodd" d="M18.1606 2.83122C17.9852 2.01157 17.2009 1.42614 16.3773 1.5097L14.9911 1.65113C14.9012 1.66025 14.7376 1.64397 14.5463 1.58037C14.355 1.51678 14.2129 1.43137 14.1449 1.36936L13.1034 0.420223C12.4874 -0.140216 11.5137 -0.140003 10.8977 0.420436L9.85617 1.36882C9.78817 1.43084 9.64626 1.51606 9.45504 1.57966C9.26369 1.64329 9.10016 1.65947 9.01078 1.65037L7.62287 1.50966L7.62184 1.50955C6.79975 1.42737 6.01498 2.01364 5.84051 2.83387L5.54402 4.22533C5.52371 4.31877 5.45684 4.47415 5.33875 4.64047C5.22012 4.80753 5.09645 4.91942 5.01837 4.96603L3.81508 5.6859L3.81393 5.68659C3.1045 6.11276 2.80483 7.05317 3.13448 7.82281L3.69341 9.12777C3.73078 9.21501 3.76635 9.3809 3.76648 9.58728C3.76662 9.79337 3.7312 9.9594 3.69394 10.0468L3.13385 11.3533C2.80373 12.123 3.10435 13.0635 3.81446 13.4893L5.01673 14.2075C5.09633 14.2557 5.21989 14.3684 5.33834 14.5349C5.45711 14.7019 5.52354 14.8569 5.54325 14.9486L5.84067 16.3424L5.84101 16.344C5.87359 16.4952 5.9269 16.6385 5.99738 16.7712L4.48016 21.0359L4.47966 21.0373C4.29516 21.5592 4.43678 22.1502 4.84793 22.5242C4.979 22.6443 5.12774 22.7326 5.28461 22.7904C5.628 22.9187 6.01143 22.898 6.34413 22.7295L7.16706 22.3078L7.53298 23.1714C7.75035 23.6849 8.25384 24.0161 8.80826 23.9978C9.35885 23.9804 9.84287 23.6225 10.0295 23.0956L10.0299 23.0947L11.4569 19.0837C11.8068 19.204 12.1922 19.2041 12.5422 19.0842L13.9696 23.0981C14.1568 23.6231 14.6397 23.982 15.191 23.9993C15.7476 24.0175 16.249 23.6837 16.4656 23.1732L16.8321 22.3091C16.8321 22.3091 17.4207 22.8051 17.8782 22.8733C18.2038 22.9218 18.717 22.7914 18.717 22.7914C18.869 22.7347 19.0189 22.6474 19.1522 22.5251C19.5616 22.1514 19.705 21.5609 19.5184 21.0368L18.0018 16.7738C18.0732 16.6399 18.1273 16.4944 18.16 16.3415L18.4569 14.9481C18.4763 14.8567 18.5425 14.7018 18.6611 14.5347C18.7799 14.3675 18.9034 14.2558 18.9807 14.2096L20.1855 13.489L20.1872 13.4879C20.8955 13.0616 21.195 12.1215 20.8654 11.352L20.3065 10.0471C20.2692 9.96014 20.2338 9.7945 20.2338 9.58807C20.2338 9.38198 20.2693 9.21574 20.3067 9.12806L20.8662 7.82121C21.1956 7.05275 20.8972 6.11223 20.1874 5.68585L18.9828 4.96596C18.9042 4.91875 18.7811 4.80685 18.6628 4.64008C18.5446 4.47351 18.478 4.31801 18.4581 4.22554L18.1606 2.83122ZM19.8094 6.33762C20.1953 6.56943 20.364 7.10045 20.1844 7.51889L19.6248 8.82607C19.4452 9.246 19.4452 9.93033 19.6248 10.3495L20.1837 11.6545C20.3632 12.0737 20.1938 12.6047 19.8087 12.8365L18.6039 13.5571C18.2195 13.7867 17.8249 14.3422 17.73 14.788L17.4332 16.1811C17.3376 16.6277 16.896 16.9565 16.4507 16.9113L15.0636 16.7699C14.6183 16.7254 13.9819 16.9373 13.6481 17.2416L12.607 18.1889C12.274 18.4933 11.7266 18.4933 11.3936 18.1889L10.351 17.2402C10.0173 16.9365 9.38087 16.7247 8.93561 16.7699L7.54987 16.9113C7.10461 16.9573 6.6637 16.6284 6.5674 16.1818L6.26984 14.7873C6.17427 14.3414 5.77969 13.7874 5.39452 13.5556L4.19196 12.8372C3.80534 12.6054 3.63593 12.0744 3.81548 11.656L4.37585 10.3488C4.55541 9.92884 4.55468 9.24452 4.37513 8.82533L3.8162 7.52037C3.63665 7.10119 3.80607 6.57017 4.19196 6.33836L5.39525 5.61848C5.78114 5.38815 6.17427 4.83343 6.27056 4.38684L6.5674 2.99375C6.66225 2.54716 7.10461 2.21833 7.54915 2.26277L8.93706 2.40348C9.38087 2.44866 10.0187 2.23685 10.3525 1.93245L11.3936 0.984471C11.7274 0.68082 12.274 0.68082 12.6077 0.984471L13.6489 1.9332C13.9809 2.23606 14.6141 2.44727 15.0583 2.40489L15.065 2.40422L16.4515 2.26277C16.8967 2.21759 17.3384 2.54568 17.4339 2.99227L17.7315 4.38684C17.8271 4.83269 18.2202 5.38741 18.6061 5.61848L19.8094 6.33762ZM5.53925 22.0793C5.4683 22.0534 5.40241 22.0142 5.34449 21.9608C5.16132 21.7949 5.09616 21.5291 5.17942 21.2935L6.52896 17.5001C6.73951 17.637 6.9754 17.7322 7.22373 17.7704C7.30329 17.7826 7.38413 17.789 7.46581 17.789C7.52229 17.789 7.57731 17.786 7.63378 17.7801L9.06079 17.6371C9.30984 17.6371 9.65374 17.7749 9.78406 17.8919L10.7702 18.791L9.33011 22.8385C9.24685 23.074 9.03038 23.2339 8.78422 23.2414C8.53878 23.2495 8.31362 23.1029 8.21588 22.8718L7.53749 21.2706L6.01274 22.0519C5.86215 22.1282 5.69056 22.1364 5.53925 22.0793Z" fill="#834429"/>
<path fill-rule="evenodd" clip-rule="evenodd" d="M5.39566 21.1675C5.32313 21.1427 5.25579 21.1053 5.19658 21.0544C5.00934 20.8961 4.94273 20.6424 5.02784 20.4177L6.40737 16.7981C6.6226 16.9287 6.86373 17.0196 7.11758 17.056C7.19891 17.0677 7.28154 17.0737 7.36504 17.0737C7.42277 17.0737 7.47902 17.0709 7.53674 17.0653L8.99546 16.9289C9.25005 16.9289 9.60159 17.0603 9.73481 17.172L10.7428 18.0299L9.27077 21.8918C9.18566 22.1165 8.96437 22.2692 8.71274 22.2762C8.46185 22.284 8.23169 22.1441 8.13177 21.9236L7.43831 20.3958L5.87968 21.1413C5.72574 21.2141 5.55034 21.2219 5.39566 21.1675Z" fill="#843225"/>
<path fill-rule="evenodd" clip-rule="evenodd" d="M5.39566 21.1675C5.32313 21.1427 5.25579 21.1053 5.19658 21.0544C5.00934 20.8961 4.94273 20.6424 5.02784 20.4177L6.40737 16.7981C6.6226 16.9287 6.86373 17.0196 7.11758 17.056C7.19891 17.0677 7.28154 17.0737 7.36504 17.0737C7.42277 17.0737 7.47902 17.0709 7.53674 17.0653L8.99546 16.9289C9.25005 16.9289 9.60159 17.0603 9.73481 17.172L10.7428 18.0299L9.27077 21.8918C9.18566 22.1165 8.96437 22.2692 8.71274 22.2762C8.46185 22.284 8.23169 22.1441 8.13177 21.9236L7.43831 20.3958L5.87968 21.1413C5.72574 21.2141 5.55034 21.2219 5.39566 21.1675Z" fill="#843225"/>
<path fill-rule="evenodd" clip-rule="evenodd" d="M5.19658 21.0544C5.25579 21.1053 5.32313 21.1427 5.39566 21.1675C5.55034 21.2219 5.72574 21.2141 5.87968 21.1413L7.43831 20.3958L8.13177 21.9236C8.23169 22.1441 8.46185 22.284 8.71274 22.2762C8.96437 22.2692 9.18566 22.1165 9.27077 21.8918L10.7428 18.0299L9.73481 17.172C9.60159 17.0603 9.25005 16.9289 8.99546 16.9289L7.53674 17.0653C7.47902 17.0709 7.42277 17.0737 7.36504 17.0737C7.28154 17.0737 7.19891 17.0677 7.11758 17.056C6.86373 17.0196 6.6226 16.9287 6.40737 16.7981L5.02784 20.4177C4.94273 20.6424 5.00934 20.8961 5.19658 21.0544ZM15.3048 8.60786C15.4743 8.44745 15.421 8.28986 15.1842 8.25735L13.5493 8.03051C13.3125 7.9973 13.0305 7.80226 12.9239 7.59662L12.1935 6.18258C12.0869 5.97694 11.913 5.97694 11.8079 6.18258L11.0767 7.59662C10.9694 7.80226 10.6889 7.9973 10.4506 8.03051L8.81719 8.25735C8.57888 8.28986 8.52486 8.44815 8.6973 8.60786L9.87996 9.70885C10.0517 9.86926 10.1597 10.1851 10.119 10.4106L9.83926 11.9645C9.79855 12.1907 9.93991 12.2889 10.1523 12.1815L11.6147 11.4487C11.8271 11.342 12.1757 11.342 12.3881 11.4487L13.8498 12.1815C14.0622 12.2889 14.2028 12.1914 14.1621 11.9645L13.8831 10.4106C13.8424 10.1851 13.9505 9.86855 14.1214 9.70885L15.3048 8.60786Z" fill="#843225"/>
<path fill-rule="evenodd" clip-rule="evenodd" d="M6.85002 9.2481C6.85002 11.9645 9.15613 14.1658 12.0003 14.1658C13.6545 14.1658 15.1263 13.4215 16.0685 12.2645C16.3557 11.9119 16.5936 11.521 16.7726 11.1011C17.0163 10.5292 17.1506 9.90366 17.1506 9.2481C17.1506 7.98843 16.6546 6.83931 15.8388 5.96918C15.7103 5.83215 15.5739 5.70204 15.4303 5.5795C14.5196 4.80266 13.3178 4.3304 12.0003 4.3304C9.15613 4.3304 6.85002 6.53237 6.85002 9.2481ZM12.0003 13.4436C11.25 13.4436 10.543 13.2636 9.92466 12.9459C9.92466 12.9459 9.46161 12.6445 9.16491 12.4513C8.21444 11.6824 7.61022 10.5337 7.61022 9.2481C7.61022 6.9277 9.57966 5.05255 12.0003 5.05255C13.4541 5.05255 14.7447 5.7285 15.544 6.77095C15.8521 7.1727 16.0872 7.62887 16.2305 8.12176C16.3065 8.38305 16.3567 8.65467 16.3783 8.93396C16.3863 9.03766 16.3904 9.14241 16.3904 9.2481C16.3904 9.90258 16.2339 10.5216 15.9548 11.073C15.6859 11.6043 15.3033 12.0729 14.8374 12.4502L14.0758 12.9462C13.4575 13.2637 12.7506 13.4436 12.0003 13.4436ZM15.3048 8.60786C15.4743 8.44745 15.421 8.28986 15.1842 8.25735L13.5493 8.03051C13.3125 7.9973 13.0305 7.80226 12.9239 7.59662L12.1935 6.18258C12.0869 5.97694 11.913 5.97694 11.8079 6.18258L11.0767 7.59662C10.9694 7.80226 10.6889 7.9973 10.4506 8.03051L8.81719 8.25735C8.57888 8.28986 8.52486 8.44815 8.6973 8.60786L9.87996 9.70885C10.0517 9.86926 10.1597 10.1851 10.119 10.4106L9.83926 11.9645C9.79855 12.1907 9.93991 12.2889 10.1523 12.1815L11.6147 11.4487C11.8271 11.342 12.1757 11.342 12.3881 11.4487L13.8498 12.1815C14.0622 12.2889 14.2028 12.1914 14.1621 11.9645L13.8831 10.4106C13.8424 10.1851 13.9505 9.86855 14.1214 9.70885L15.3048 8.60786Z" fill="#843225"/>
<path fill-rule="evenodd" clip-rule="evenodd" d="M18.2975 2.80155C18.1182 2.01947 17.3164 1.46087 16.4745 1.54061L15.0576 1.67555C14.9656 1.68426 14.7984 1.66872 14.6029 1.60804C14.4074 1.54736 14.2621 1.46586 14.1926 1.40669L13.1279 0.50106C12.4982 -0.0336919 11.5029 -0.0334888 10.8732 0.501263L9.80852 1.40618C9.739 1.46536 9.59394 1.54667 9.39847 1.60735C9.20287 1.66807 9.03571 1.68351 8.94434 1.67483L7.52559 1.54056L7.52454 1.54046C6.68417 1.46205 5.88197 2.02144 5.70362 2.80408L5.40054 4.13176C5.37978 4.22092 5.31143 4.36918 5.19071 4.52788C5.06944 4.68729 4.94303 4.79405 4.86321 4.83851L3.63318 5.52539L3.63201 5.52605C2.90681 5.93269 2.60048 6.83 2.93746 7.56436L3.50881 8.80951C3.54701 8.89276 3.58336 9.05104 3.5835 9.24796C3.58364 9.44461 3.54744 9.60302 3.50935 9.68641L2.93681 10.933C2.59936 11.6674 2.90665 12.5649 3.63255 12.9711L4.86153 13.6564C4.9429 13.7024 5.06921 13.8099 5.19029 13.9688C5.3117 14.1282 5.37961 14.276 5.39976 14.3635L5.70378 15.6935L5.70413 15.695C5.73744 15.8392 5.79193 15.976 5.86398 16.1026L4.31304 20.1718L4.31253 20.1732C4.12393 20.6712 4.26869 21.2351 4.68899 21.592C4.82296 21.7066 4.97501 21.7908 5.13537 21.846C5.48638 21.9683 5.87833 21.9486 6.21843 21.7878L7.05965 21.3854L7.4337 22.2095C7.6559 22.6994 8.17058 23.0155 8.73732 22.998C9.30015 22.9814 9.79492 22.6399 9.98575 22.1372L9.98608 22.1363L11.4449 18.3091C11.8025 18.4239 12.1965 18.424 12.5542 18.3096L14.0133 22.1396C14.2047 22.6405 14.6984 22.9829 15.2618 22.9994C15.8309 23.0168 16.3434 22.6983 16.5649 22.2112L16.9395 21.3867C16.9395 21.3867 17.5412 21.86 18.0088 21.925C18.3416 21.9713 18.8663 21.8469 18.8663 21.8469C19.0216 21.7928 19.1749 21.7095 19.3112 21.5928C19.7296 21.2363 19.8762 20.6728 19.6854 20.1727L18.1351 16.1051C18.2081 15.9773 18.2634 15.8385 18.2969 15.6926L18.6004 14.3631C18.6202 14.2759 18.6879 14.1281 18.8092 13.9687C18.9305 13.8091 19.0568 13.7025 19.1359 13.6584L20.3674 12.9708L20.3691 12.9698C21.0932 12.5631 21.3993 11.666 21.0624 10.9318L20.491 9.68669C20.453 9.60373 20.4167 9.44568 20.4167 9.24871C20.4167 9.05207 20.453 8.89345 20.4912 8.80979L21.0632 7.56283C21.3999 6.82959 21.0949 5.93219 20.3693 5.52534L19.138 4.83845C19.0576 4.7934 18.9318 4.68663 18.8108 4.5275C18.69 4.36857 18.622 4.2202 18.6016 4.13196L18.2975 2.80155ZM19.9829 6.14724C20.3774 6.36843 20.5498 6.87511 20.3663 7.27437L19.7942 8.52164C19.6106 8.92232 19.6106 9.57528 19.7942 9.97526L20.3655 11.2204C20.5491 11.6204 20.3759 12.1271 19.9822 12.3482L18.7507 13.0358C18.3577 13.2549 17.9543 13.7849 17.8574 14.2103L17.5539 15.5396C17.4562 15.9657 17.0048 16.2794 16.5496 16.2363L15.1316 16.1014C14.6765 16.059 14.0259 16.2611 13.6847 16.5515L12.6205 17.4553C12.2801 17.7458 11.7205 17.7458 11.3801 17.4553L10.3144 16.5501C9.97319 16.2604 9.32266 16.0582 8.8675 16.1014L7.45097 16.2363C6.99581 16.2801 6.5451 15.9664 6.44667 15.5403L6.14249 14.2096C6.0448 13.7842 5.64145 13.2556 5.24772 13.0344L4.01843 12.349C3.62323 12.1278 3.45004 11.6211 3.63359 11.2218L4.20642 9.97455C4.38996 9.57387 4.38922 8.92091 4.20568 8.52094L3.63433 7.27579C3.45078 6.87581 3.62397 6.36913 4.01843 6.14795L5.24846 5.46107C5.64293 5.24129 6.0448 4.712 6.14323 4.28588L6.44667 2.95664C6.54362 2.53052 6.99581 2.21676 7.45023 2.25916L8.86898 2.39342C9.32266 2.43653 9.97467 2.23442 10.3159 1.94398L11.3801 1.03945C11.7213 0.749713 12.2801 0.749713 12.6212 1.03945L13.6855 1.94469C14.0249 2.23367 14.6721 2.4352 15.1262 2.39476L15.1331 2.39413L16.5504 2.25916C17.0055 2.21605 17.457 2.5291 17.5547 2.95522L17.8588 4.28588C17.9565 4.71129 18.3584 5.24059 18.7529 5.46107L19.9829 6.14724ZM5.39566 21.1675C5.32313 21.1427 5.25579 21.1053 5.19658 21.0544C5.00934 20.8961 4.94273 20.6424 5.02784 20.4177L6.40737 16.7981C6.6226 16.9287 6.86373 17.0196 7.11758 17.056C7.19891 17.0677 7.28154 17.0737 7.36504 17.0737C7.42277 17.0737 7.47902 17.0709 7.53674 17.0653L8.99546 16.9289C9.25005 16.9289 9.60159 17.0603 9.73481 17.172L10.7428 18.0299L9.27077 21.8918C9.18566 22.1165 8.96437 22.2692 8.71274 22.2762C8.46185 22.284 8.23169 22.1441 8.13177 21.9236L7.43831 20.3958L5.87968 21.1413C5.72574 21.2141 5.55034 21.2219 5.39566 21.1675Z" fill="#843225"/>
<path d="M14.0482 7.50796L16.2097 7.83741C16.5228 7.88462 16.5932 8.11349 16.3691 8.34647L14.8046 9.9455C14.5786 10.1774 14.4357 10.6372 14.4895 10.9646L14.8584 13.2216C14.9122 13.551 14.7263 13.6926 14.4455 13.5366L12.513 12.4723C12.2322 12.3174 11.7714 12.3174 11.4905 12.4723L9.5571 13.5366C9.27628 13.6926 9.0894 13.55 9.14321 13.2216L9.51307 10.9646C9.56689 10.6372 9.42403 10.1785 9.19703 9.9455L7.63345 8.34647C7.40547 8.11452 7.4769 7.88462 7.79196 7.83741L9.95142 7.50796C10.2665 7.45972 10.6373 7.17645 10.7792 6.87779L11.7459 4.8241C11.8849 4.52543 12.1148 4.52543 12.2557 4.8241L13.2214 6.87779C13.3623 7.17645 13.7351 7.45972 14.0482 7.50796Z" fill="#843225"/>
<path d="M13.5604 8.02327L15.2069 8.25057C15.4454 8.28315 15.4991 8.44106 15.3284 8.6018L14.1366 9.70506C13.9644 9.8651 13.8556 10.1823 13.8965 10.4082L14.1776 11.9654C14.2186 12.1927 14.0769 12.2904 13.863 12.1828L12.3909 11.4485C12.177 11.3415 11.8259 11.3415 11.612 11.4485L10.1391 12.1828C9.92519 12.2904 9.78282 12.192 9.82382 11.9654L10.1056 10.4082C10.1466 10.1823 10.0377 9.8658 9.86481 9.70506L8.67371 8.6018C8.50003 8.44177 8.55445 8.28315 8.79446 8.25057L10.4395 8.02327C10.6795 7.98998 10.962 7.79454 11.0701 7.58848L11.8065 6.17152C11.9124 5.96546 12.0875 5.96546 12.1949 6.17152L12.9305 7.58848C13.0379 7.79454 13.3219 7.98998 13.5604 8.02327Z" fill="white"/>
<path fill-rule="evenodd" clip-rule="evenodd" d="M19.8498 9.97202C19.665 9.57122 19.665 8.91691 19.8498 8.51541L20.426 7.26557C20.6109 6.86548 20.4372 6.35776 20.0399 6.13611L18.8011 5.44853C18.4038 5.22759 17.9991 4.69721 17.9007 4.27092L17.5943 2.93752C17.4959 2.51052 17.0413 2.19682 16.5829 2.24002L15.1555 2.37527C14.6978 2.41846 14.0411 2.21594 13.6975 1.9249L12.6257 1.0178C12.282 0.727466 11.7193 0.727466 11.3757 1.0178L10.3038 1.92419C9.96021 2.21523 9.30353 2.41776 8.84661 2.37456L7.41773 2.24002C6.96007 2.19753 6.50465 2.51194 6.407 2.93894L6.1014 4.27092C6.00226 4.69791 5.59752 5.2283 5.20024 5.44853L3.96143 6.13682C3.56414 6.35846 3.38972 6.86619 3.57458 7.26699L4.15 8.5147C4.33486 8.9155 4.3356 9.5698 4.15075 9.97131L3.57383 11.2211C3.38898 11.6212 3.56339 12.129 3.96143 12.3506L5.19949 13.0375C5.59603 13.2591 6.00226 13.7888 6.10065 14.2151L6.407 15.5485C6.50614 15.9755 6.96007 16.2899 7.41847 16.246L8.84512 16.1107C9.30353 16.0675 9.95871 16.2701 10.3023 16.5604L11.3757 17.4675C11.7185 17.7585 12.282 17.7585 12.6249 17.4675L13.6968 16.5618C14.0404 16.2708 14.6956 16.0683 15.154 16.1107L16.5821 16.246C17.0405 16.2892 17.4952 15.9748 17.5936 15.5478L17.8992 14.2158C17.9968 13.7895 18.4031 13.2584 18.7989 13.0389L20.0392 12.3499C20.4357 12.1283 20.6101 11.6205 20.4253 11.2197L19.8498 9.97202ZM12.0003 14.1712C9.13582 14.1712 6.81323 11.9654 6.81323 9.24336C6.81323 6.52204 9.13582 4.31553 12.0003 4.31553C14.8655 4.31553 17.1874 6.52204 17.1874 9.24336C17.1874 11.9654 14.8655 14.1712 12.0003 14.1712Z" fill="white"/>
<path d="M7.50486 17.0766L8.974 16.94C9.23041 16.94 9.58446 17.0717 9.71863 17.1836L10.7338 18.0432L9.25128 21.9131C9.16556 22.1383 8.94269 22.2912 8.68926 22.2983C8.43658 22.3061 8.20477 22.1659 8.10414 21.945L7.40573 20.414L5.83597 21.1611C5.68093 21.234 5.50427 21.2418 5.34849 21.1873C5.27544 21.1625 5.20762 21.125 5.14799 21.074C4.95941 20.9154 4.89232 20.6611 4.97804 20.436L6.36742 16.809C6.65364 16.9817 6.98534 17.0851 7.33194 17.0851C7.39007 17.0851 7.44672 17.0823 7.50486 17.0766Z" fill="white"/>
<path d="M16.6675 17.0858C17.0141 17.0858 17.3458 16.9817 17.6312 16.8104L19.0206 20.4374C19.1071 20.6626 19.04 20.9161 18.8514 21.0754C18.7918 21.1264 18.7232 21.1639 18.6517 21.1887C18.4944 21.2432 18.3185 21.2361 18.1634 21.1625L16.5937 20.4154L15.8945 21.9464C15.7939 22.1666 15.5628 22.3075 15.3094 22.2997C15.0567 22.2927 14.8338 22.1397 14.7474 21.9145L13.2656 18.0446L14.2808 17.1857C14.4142 17.0738 14.7638 16.9428 15.0604 16.9428C15.0627 16.9428 16.4945 17.0773 16.4945 17.0773C16.5527 17.083 16.6093 17.0858 16.6675 17.0858Z" fill="white"/>
</svg>
