<svg width="70" height="24" viewBox="0 0 70 24" fill="none" xmlns="http://www.w3.org/2000/svg">
<path d="M15.8807 7.63208H11.2031V16.0378H15.8807V7.63208Z" fill="#FF5F00"/>
<path d="M11.4992 11.8344C11.4984 11.0249 11.6819 10.2258 12.0356 9.49766C12.3894 8.76951 12.9041 8.13138 13.5409 7.63158C12.7523 7.01171 11.8052 6.62622 10.8079 6.51918C9.81054 6.41213 8.8032 6.58784 7.90101 7.02624C6.99881 7.46463 6.23815 8.14802 5.70598 8.99828C5.17381 9.84854 4.8916 10.8314 4.8916 11.8344C4.8916 12.8375 5.17381 13.8203 5.70598 14.6706C6.23815 15.5209 6.99881 16.2043 7.90101 16.6426C8.8032 17.081 9.81054 17.2568 10.8079 17.1497C11.8052 17.0427 12.7523 16.6572 13.5409 16.0373C12.9041 15.5375 12.3894 14.8994 12.0356 14.1712C11.6819 13.4431 11.4984 12.644 11.4992 11.8344Z" fill="#EB001B"/>
<path d="M22.1911 11.8346C22.1911 12.8376 21.9089 13.8204 21.3768 14.6707C20.8446 15.521 20.084 16.2044 19.1818 16.6428C18.2797 17.0812 17.2723 17.2569 16.275 17.1498C15.2777 17.0428 14.3306 16.6573 13.542 16.0374C14.1783 15.5371 14.6926 14.8989 15.0463 14.1708C15.4 13.4428 15.5838 12.644 15.5838 11.8346C15.5838 11.0252 15.4 10.2263 15.0463 9.49828C14.6926 8.77024 14.1783 8.13201 13.542 7.6317C14.3306 7.01183 15.2777 6.62634 16.275 6.5193C17.2723 6.41226 18.2797 6.58797 19.1818 7.02637C20.084 7.46477 20.8446 8.14815 21.3768 8.99842C21.9089 9.84868 22.1911 10.8315 22.1911 11.8346Z" fill="#F79E1B"/>
<path d="M31.5341 13.7414V11.4958C31.5341 10.6369 31.0109 10.0744 30.1127 10.0744C29.6636 10.0744 29.1752 10.2226 28.8395 10.711C28.5779 10.3011 28.2029 10.0744 27.6404 10.0744C27.2654 10.0744 26.8904 10.1877 26.5939 10.5976V10.1485H25.8091V13.7414H26.5939V11.7574C26.5939 11.1208 26.9297 10.82 27.4529 10.82C27.9761 10.82 28.2378 11.1557 28.2378 11.7574V13.7414H29.0226V11.7574C29.0226 11.1208 29.3976 10.82 29.8816 10.82C30.4048 10.82 30.6664 11.1557 30.6664 11.7574V13.7414H31.5341ZM43.176 10.1485H41.9028V9.06279H41.118V10.1485H40.4073V10.8592H41.118V12.5074C41.118 13.3315 41.4537 13.8155 42.352 13.8155C42.6877 13.8155 43.0627 13.7021 43.3243 13.5539L43.0976 12.878C42.8708 13.0263 42.6092 13.0655 42.4217 13.0655C42.0467 13.0655 41.8985 12.8388 41.8985 12.4682V10.8592H43.1717V10.1485H43.176ZM49.8385 10.07C49.3894 10.07 49.0886 10.2967 48.9011 10.5932V10.1441H48.1162V13.737H48.9011V11.7138C48.9011 11.1165 49.1627 10.7764 49.6511 10.7764C49.7993 10.7764 49.9868 10.8156 50.1394 10.8505L50.3661 10.1005C50.2092 10.07 49.9868 10.07 49.8385 10.07ZM39.7707 10.445C39.3957 10.1834 38.8725 10.07 38.31 10.07C37.4118 10.07 36.8144 10.5191 36.8144 11.2298C36.8144 11.8272 37.2635 12.1673 38.0484 12.2763L38.4234 12.3156C38.8332 12.3897 39.06 12.503 39.06 12.6905C39.06 12.9522 38.7591 13.1396 38.2359 13.1396C37.7126 13.1396 37.2984 12.9522 37.0368 12.7647L36.6618 13.362C37.0717 13.6629 37.6341 13.8111 38.1966 13.8111C39.2431 13.8111 39.8448 13.3228 39.8448 12.6513C39.8448 12.0147 39.3564 11.679 38.6108 11.5656L38.2359 11.5263C37.9001 11.4871 37.6385 11.413 37.6385 11.1906C37.6385 10.929 37.9001 10.7807 38.3143 10.7807C38.7635 10.7807 39.2126 10.9682 39.4393 11.0816L39.7707 10.445ZM60.652 10.07C60.2029 10.07 59.9021 10.2967 59.7146 10.5932V10.1441H58.9297V13.737H59.7146V11.7138C59.7146 11.1165 59.9762 10.7764 60.4645 10.7764C60.6128 10.7764 60.8003 10.8156 60.9529 10.8505L61.1796 10.1093C61.027 10.07 60.8046 10.07 60.652 10.07ZM50.6234 11.9449C50.6234 13.0306 51.3734 13.8155 52.5332 13.8155C53.0564 13.8155 53.4314 13.7021 53.8064 13.4056L53.4314 12.769C53.1305 12.9958 52.834 13.1048 52.4939 13.1048C51.8573 13.1048 51.4082 12.6557 51.4082 11.9449C51.4082 11.2691 51.8573 10.82 52.4939 10.7851C52.8297 10.7851 53.1305 10.8985 53.4314 11.1208L53.8064 10.4842C53.4314 10.1834 53.0564 10.0744 52.5332 10.0744C51.3734 10.07 50.6234 10.8592 50.6234 11.9449ZM57.8832 11.9449V10.1485H57.0984V10.5976C56.8368 10.2619 56.4618 10.0744 55.9734 10.0744C54.9619 10.0744 54.177 10.8592 54.177 11.9449C54.177 13.0306 54.9619 13.8155 55.9734 13.8155C56.4967 13.8155 56.8717 13.628 57.0984 13.2923V13.7414H57.8832V11.9449ZM55.0011 11.9449C55.0011 11.3083 55.411 10.7851 56.0868 10.7851C56.7234 10.7851 57.1725 11.2734 57.1725 11.9449C57.1725 12.5815 56.7234 13.1048 56.0868 13.1048C55.4153 13.0655 55.0011 12.5772 55.0011 11.9449ZM45.6091 10.07C44.5626 10.07 43.8126 10.82 43.8126 11.9406C43.8126 13.0655 44.5626 13.8111 45.6483 13.8111C46.1716 13.8111 46.6948 13.6629 47.109 13.3228L46.734 12.7603C46.4332 12.987 46.0582 13.1353 45.6876 13.1353C45.1992 13.1353 44.7152 12.9086 44.6019 12.2763H47.2573C47.2573 12.1629 47.2573 12.0888 47.2573 11.9755C47.2921 10.82 46.6163 10.07 45.6091 10.07ZM45.6091 10.7459C46.0974 10.7459 46.4332 11.0467 46.5073 11.6048H44.6367C44.7109 11.1208 45.0466 10.7459 45.6091 10.7459ZM65.1082 11.9449V8.72705H64.3234V10.5976C64.0618 10.2619 63.6868 10.0744 63.1984 10.0744C62.1868 10.0744 61.402 10.8592 61.402 11.9449C61.402 13.0306 62.1868 13.8155 63.1984 13.8155C63.7216 13.8155 64.0966 13.628 64.3234 13.2923V13.7414H65.1082V11.9449ZM62.2261 11.9449C62.2261 11.3083 62.6359 10.7851 63.3118 10.7851C63.9484 10.7851 64.3975 11.2734 64.3975 11.9449C64.3975 12.5815 63.9484 13.1048 63.3118 13.1048C62.6359 13.0655 62.2261 12.5772 62.2261 11.9449ZM35.9511 11.9449V10.1485H35.1662V10.5976C34.9046 10.2619 34.5296 10.0744 34.0413 10.0744C33.0297 10.0744 32.2448 10.8592 32.2448 11.9449C32.2448 13.0306 33.0297 13.8155 34.0413 13.8155C34.5645 13.8155 34.9395 13.628 35.1662 13.2923V13.7414H35.9511V11.9449ZM33.0341 11.9449C33.0341 11.3083 33.4439 10.7851 34.1198 10.7851C34.7564 10.7851 35.2055 11.2734 35.2055 11.9449C35.2055 12.5815 34.7564 13.1048 34.1198 13.1048C33.4439 13.0655 33.0341 12.5772 33.0341 11.9449Z" fill="black"/>
</svg>
