<svg width="70" height="24" viewBox="0 0 70 24" fill="none" xmlns="http://www.w3.org/2000/svg">
<path d="M53.7365 17.0253C52.7842 17.0253 51.8318 17.0253 50.8654 17.0253C50.7603 16.5711 50.6476 16.1269 50.5587 15.6788C50.5218 15.4929 50.4556 15.4208 50.2249 15.4234C49.0737 15.4368 47.9221 15.4335 46.7708 15.4253C46.5965 15.424 46.5272 15.4758 46.4741 15.6186C46.3156 16.0456 46.1421 16.4682 45.9646 16.8892C45.9405 16.9463 45.8607 17.0247 45.806 17.0252C44.7682 17.0333 43.7304 17.0312 42.6626 17.0312C42.8572 16.6096 43.0415 16.2071 43.2285 15.8057C44.5666 12.9337 45.9053 10.0619 47.2438 7.19008C47.5337 6.56807 47.9683 6.30761 48.7159 6.30757C49.549 6.30752 50.3822 6.30756 51.2366 6.30756C51.3199 6.6577 51.4038 7.00271 51.484 7.34842C52.1425 10.1866 52.7994 13.025 53.4595 15.8629C53.544 16.2264 53.6437 16.587 53.7365 16.949C53.7365 16.9744 53.7365 16.9999 53.7365 17.0253ZM49.9787 13.2167C49.6728 11.897 49.3709 10.595 49.069 9.293C49.0567 9.29083 49.0443 9.28866 49.032 9.28649C48.506 10.5917 47.98 11.897 47.4482 13.2167C48.3072 13.2167 49.1296 13.2167 49.9787 13.2167Z" fill="#1434CB"/>
<path d="M41.2286 6.1167C41.6075 6.17999 41.9893 6.23203 42.3645 6.30988C42.7068 6.38092 43.042 6.47993 43.4059 6.57316C43.2225 7.34464 43.0435 8.09762 42.8683 8.83437C42.3883 8.70772 41.9295 8.5619 41.4579 8.46826C40.8128 8.34018 40.1518 8.29137 39.5065 8.45314C39.2442 8.5189 38.9786 8.64517 38.7721 8.80435C38.4179 9.07739 38.4131 9.47044 38.7515 9.7571C38.9848 9.95475 39.2613 10.117 39.5377 10.2665C40.1659 10.6064 40.8254 10.9019 41.4359 11.2649C42.1549 11.6924 42.6794 12.2802 42.7895 13.0749C42.9842 14.4804 42.4064 15.5876 41.0939 16.3708C40.2686 16.8634 39.3346 17.0834 38.3615 17.1648C37.0026 17.2786 35.6707 17.1416 34.3723 16.758C34.2853 16.7323 34.2006 16.7001 34.1157 16.6689C34.0904 16.6596 34.0684 16.6431 34.0295 16.6213C34.213 15.8486 34.3966 15.0748 34.5854 14.2794C34.8067 14.3663 35.0145 14.4534 35.2269 14.5304C36.2412 14.8981 37.2887 15.0663 38.3744 14.8833C38.6569 14.8357 38.9449 14.7235 39.1843 14.5791C39.7039 14.2658 39.7537 13.677 39.2806 13.309C38.9697 13.0672 38.596 12.8885 38.2417 12.6944C37.6884 12.3912 37.1005 12.1327 36.5769 11.7934C35.9057 11.3584 35.4196 10.7783 35.3274 10.0074C35.1895 8.85319 35.6656 7.91595 36.6505 7.1877C37.5075 6.55406 38.5249 6.27286 39.6089 6.15476C39.6691 6.1482 39.7277 6.12967 39.7871 6.1167C40.2676 6.1167 40.7481 6.1167 41.2286 6.1167Z" fill="#1434CB"/>
<path d="M30.0636 6.31629C29.9023 6.66543 29.7496 6.99832 29.5948 7.33044C28.1171 10.5015 26.6376 13.6718 25.166 16.8452C25.0959 16.9964 25.0101 17.0361 24.8397 17.0348C23.9071 17.0278 22.9743 17.0251 22.0418 17.0366C21.8441 17.0391 21.7796 16.9767 21.7341 16.8172C20.9434 14.0454 20.1396 11.2767 19.3579 8.50293C19.2145 7.99405 18.9274 7.6465 18.389 7.4332C17.5259 7.09129 16.63 6.85111 15.7161 6.65589C15.6756 6.64726 15.6354 6.63781 15.5974 6.62928C15.602 6.30758 15.602 6.30757 15.9421 6.30756C17.5743 6.30756 19.2064 6.30723 20.8386 6.30771C21.6127 6.30793 22.1716 6.71248 22.3179 7.40179C22.7323 9.35319 23.1378 11.3061 23.5471 13.2584C23.565 13.3437 23.5854 13.4287 23.6125 13.5489C23.6548 13.4773 23.6844 13.4371 23.7036 13.3933C24.7174 11.0867 25.7314 8.78024 26.74 6.47183C26.795 6.34582 26.8629 6.30307 27.0141 6.30415C27.9609 6.3109 28.9077 6.30742 29.8545 6.30789C29.9157 6.30792 29.9769 6.31268 30.0636 6.31629Z" fill="#1434CB"/>
<path d="M28.8275 17.0315C29.6802 13.4468 30.5269 9.88724 31.3756 6.31901C32.4081 6.31901 33.4283 6.31901 34.4682 6.31901C34.3395 6.86248 34.2136 7.39556 34.0869 7.92849C33.3863 10.8758 32.683 13.8226 31.9901 16.7714C31.942 16.9763 31.8613 17.0414 31.6249 17.0372C30.7774 17.0225 29.9294 17.0315 29.0815 17.0315C29.0055 17.0315 28.9294 17.0315 28.8275 17.0315Z" fill="#1434CB"/>
</svg>
